<?xml version="1.0" encoding="UTF-8"?>
<svg version="1.1" xmlns="http://www.w3.org/2000/svg" width="217" height="165">
<path d="M0 0 C71.61 0 143.22 0 217 0 C217 54.45 217 108.9 217 165 C145.39 165 73.78 165 0 165 C0 110.55 0 56.1 0 0 Z " fill="#FDFDFD" transform="translate(0,0)"/>
<path d="M0 0 C0 2.64 0 5.28 0 8 C0.99 8.495 0.99 8.495 2 9 C1.67 10.32 1.34 11.64 1 13 C3.97 13 6.94 13 10 13 C10.6875 15.75 10.6875 15.75 11 19 C10.03886134 20.36161311 9.04115841 21.69855198 8 23 C8.21717352 25.20800528 8.21717352 25.20800528 9 27 C8.67 27 8.34 27 8 27 C7.663389 28.77021322 7.33082707 30.54119674 7 32.3125 C6.814375 33.29863281 6.62875 34.28476563 6.4375 35.30078125 C5.92000204 38.03781805 5.92000204 38.03781805 6 41 C9.12197478 39.6910428 9.12197478 39.6910428 11 37 C11.22858114 34.9625237 11.41024278 32.91959697 11.5625 30.875 C11.64628906 29.77929688 11.73007813 28.68359375 11.81640625 27.5546875 C11.87699219 26.71164063 11.93757812 25.86859375 12 25 C18.38453501 25.36833856 18.38453501 25.36833856 21.375 28.4375 C24.30669135 33.06055174 24.64926125 36.57466627 24 42 C22.36344058 46.35850539 19.64080371 50.10877353 16 53 C12.75 54.25 12.75 54.25 10 55 C10 55.66 10 56.32 10 57 C10.66 57.33 11.32 57.66 12 58 C10.75 60 10.75 60 9 62 C7.68 62 6.36 62 5 62 C4.773125 62.556875 4.54625 63.11375 4.3125 63.6875 C1.9326653 67.8805421 -1.41808386 71.36186361 -6 73 C-9.08030862 72.66103894 -12.00396587 71.98521113 -15.02734375 71.3125 C-18.44696329 70.95301306 -19.86789248 71.69961607 -23 73 C-33.79058373 74.05790037 -42.29465868 73.10607383 -52 68 C-53.245854 67.37841047 -54.49333645 66.76007718 -55.7421875 66.14453125 C-58.19462074 64.93308832 -60.63208126 63.70149679 -63.06640625 62.453125 C-65.95465378 60.93860284 -65.95465378 60.93860284 -69 60 C-68.505 63.96 -68.505 63.96 -68 68 C-68.99 67.01 -69.98 66.02 -71 65 C-71.33 65.66 -71.66 66.32 -72 67 C-72.99 67 -73.98 67 -75 67 C-75 66.01 -75 65.02 -75 64 C-75.66 64 -76.32 64 -77 64 C-77 65.32 -77 66.64 -77 68 C-77.66 68 -78.32 68 -79 68 C-78.34 65.36 -77.68 62.72 -77 60 C-74.525 61.98 -74.525 61.98 -72 64 C-72 62.02 -72 60.04 -72 58 C-75.97619762 56.27151547 -79.97851169 54.62016795 -84 53 C-84.76570313 52.67 -85.53140625 52.34 -86.3203125 52 C-96.44053697 48.22758658 -110.6343062 47.88697241 -120.5 52.375 C-122.01825509 53.21792734 -123.52123755 54.08956789 -125 55 C-126.06734375 55.48339844 -126.06734375 55.48339844 -127.15625 55.9765625 C-129.33045386 56.99921464 -129.33045386 56.99921464 -131 60 C-131.66 60 -132.32 60 -133 60 C-131.82744291 56.66272214 -130.81131596 54.22562513 -128 52 C-127.34 52 -126.68 52 -126 52 C-126 51.34 -126 50.68 -126 50 C-124.25 48.7109375 -124.25 48.7109375 -122 47.375 C-121.2575 46.92898437 -120.515 46.48296875 -119.75 46.0234375 C-119.1725 45.68570313 -118.595 45.34796875 -118 45 C-120.48952921 42.33264727 -122.63408134 40.44253657 -126 39 C-126 38.34 -126 37.68 -126 37 C-126.66 37 -127.32 37 -128 37 C-128 35.02 -128 33.04 -128 31 C-127.01 31 -126.02 31 -125 31 C-124.896875 30.195625 -124.79375 29.39125 -124.6875 28.5625 C-124.13534354 25.70132563 -123.44204984 23.3884123 -122.4375 20.6875 C-120.78534239 15.97163265 -120.76333149 11.97003862 -121 7 C-115.72 7 -110.44 7 -105 7 C-102.08373206 14.35406699 -102.08373206 14.35406699 -101.5625 18.375 C-101.376875 19.24125 -101.19125 20.1075 -101 21 C-99.01549565 22.18777825 -99.01549565 22.18777825 -97 23 C-95.29304267 17.34428139 -93.60665302 11.68507992 -92 6 C-90.7934375 6.0309375 -90.7934375 6.0309375 -89.5625 6.0625 C-87.06645115 6.29633621 -87.06645115 6.29633621 -86 5 C-84.58429877 4.91348389 -83.164405 4.89295096 -81.74609375 4.90234375 C-80.46508789 4.90717773 -80.46508789 4.90717773 -79.15820312 4.91210938 C-78.26037109 4.92048828 -77.36253906 4.92886719 -76.4375 4.9375 C-75.53580078 4.94201172 -74.63410156 4.94652344 -73.70507812 4.95117188 C-71.46998686 4.96299775 -69.23502563 4.9794778 -67 5 C-67 5.66 -67 6.32 -67 7 C-66.34 7 -65.68 7 -65 7 C-64.01 9.475 -64.01 9.475 -63 12 C-60.74031609 10.91200404 -58.70075335 9.79525229 -56.625 8.375 C-53.45639609 6.71525509 -51.53507464 6.62392823 -48 7 C-45.625 8 -45.625 8 -44 9 C-44 8.34 -44 7.68 -44 7 C-41.69 7 -39.38 7 -37 7 C-37 10.96 -37 14.92 -37 19 C-39.64 19 -42.28 19 -45 19 C-45.99 17.02 -45.99 17.02 -47 15 C-50.29075996 15.37904208 -50.29075996 15.37904208 -53 17 C-53.48323069 22.53550307 -53.48323069 22.53550307 -51.5 27.5 C-51.005 27.995 -50.51 28.49 -50 29 C-46.28111761 28.49287967 -43.26545761 27.88391785 -40 26 C-39.67 26.33 -39.34 26.66 -39 27 C-36.99706653 23.99559979 -36.50728374 22.29006055 -35.875 18.8125 C-35.70742187 17.91144531 -35.53984375 17.01039062 -35.3671875 16.08203125 C-35.24601562 15.39496094 -35.12484375 14.70789062 -35 14 C-34.34 14 -33.68 14 -33 14 C-33 13.34 -33 12.68 -33 12 C-25.76751173 10.24666951 -20.57793349 10.77815503 -14 14 C-14 14.66 -14 15.32 -14 16 C-13.34 16 -12.68 16 -12 16 C-12 15.34 -12 14.68 -12 14 C-11.34 14 -10.68 14 -10 14 C-9.957279 12.33388095 -9.95936168 10.66617115 -10 9 C-10.495 8.505 -10.495 8.505 -11 8 C-11.1875 5.5625 -11.1875 5.5625 -11 3 C-7.98842611 -0.01157389 -4.25225244 0 0 0 Z M-16 15 C-16.33 16.32 -16.66 17.64 -17 19 C-16.01 18.67 -15.02 18.34 -14 18 C-14.33 17.01 -14.66 16.02 -15 15 C-15.33 15 -15.66 15 -16 15 Z " fill="#FAF6FC" transform="translate(179,35)"/>
<path d="M0 0 C0 2.64 0 5.28 0 8 C0.99 8.495 0.99 8.495 2 9 C1.67 10.32 1.34 11.64 1 13 C3.97 13 6.94 13 10 13 C10.6875 15.75 10.6875 15.75 11 19 C10.03886134 20.36161311 9.04115841 21.69855198 8 23 C8.21717352 25.20800528 8.21717352 25.20800528 9 27 C8.67 27 8.34 27 8 27 C7.663389 28.77021322 7.33082707 30.54119674 7 32.3125 C6.7215625 33.79169922 6.7215625 33.79169922 6.4375 35.30078125 C5.92000204 38.03781805 5.92000204 38.03781805 6 41 C9.12197478 39.6910428 9.12197478 39.6910428 11 37 C11.22858114 34.9625237 11.41024278 32.91959697 11.5625 30.875 C11.68818359 29.23144531 11.68818359 29.23144531 11.81640625 27.5546875 C11.87699219 26.71164063 11.93757813 25.86859375 12 25 C18.38453501 25.36833856 18.38453501 25.36833856 21.375 28.4375 C24.30669135 33.06055174 24.64926125 36.57466627 24 42 C22.36344058 46.35850539 19.64080371 50.10877353 16 53 C12.75 54.25 12.75 54.25 10 55 C10 55.66 10 56.32 10 57 C10.66 57.33 11.32 57.66 12 58 C10.6875 60 10.6875 60 9 62 C8.01 62 7.02 62 6 62 C6 61.01 6 60.02 6 59 C5.01902344 59.03480469 4.03804688 59.06960937 3.02734375 59.10546875 C-12.767106 59.49633252 -28.79644514 56.92454262 -42.46484375 48.4765625 C-45.64313235 46.62541752 -48.95586512 45.49967568 -52.4375 44.375 C-53.08009766 44.1584375 -53.72269531 43.941875 -54.38476562 43.71875 C-61.38045843 41.41762871 -68.07923447 40.79239769 -75.375 40.4375 C-76.20644531 40.39431641 -77.03789063 40.35113281 -77.89453125 40.30664062 C-79.92953228 40.20138195 -81.96474703 40.10026928 -84 40 C-84 39.67 -84 39.34 -84 39 C-80.04168191 38.97107143 -76.08339083 38.95322573 -72.125 38.9375 C-70.43310547 38.92493164 -70.43310547 38.92493164 -68.70703125 38.91210938 C-67.63066406 38.90888672 -66.55429688 38.90566406 -65.4453125 38.90234375 C-64.45031738 38.89710693 -63.45532227 38.89187012 -62.43017578 38.88647461 C-60 39 -60 39 -58 40 C-58 39.01 -58 38.02 -58 37 C-58.99 37 -59.98 37 -61 37 C-61 35.68 -61 34.36 -61 33 C-60.401875 33.309375 -59.80375 33.61875 -59.1875 33.9375 C-54.15565321 36.38153987 -49.50045144 36.59694822 -44 36 C-40.31324686 34.68419149 -40.31324686 34.68419149 -38 32 C-37.66661404 28.54187831 -37.66661404 28.54187831 -38 25 C-37.38325228 23.31422289 -36.71727778 21.64551962 -36 20 C-35.62406934 18.0075675 -35.28020455 16.0081326 -35 14 C-34.34 14 -33.68 14 -33 14 C-33 13.34 -33 12.68 -33 12 C-25.76751173 10.24666951 -20.57793349 10.77815503 -14 14 C-14 14.66 -14 15.32 -14 16 C-13.34 16 -12.68 16 -12 16 C-12 15.34 -12 14.68 -12 14 C-11.34 14 -10.68 14 -10 14 C-9.957279 12.33388095 -9.95936168 10.66617115 -10 9 C-10.495 8.505 -10.495 8.505 -11 8 C-11.1875 5.5625 -11.1875 5.5625 -11 3 C-7.98842611 -0.01157389 -4.25225244 0 0 0 Z M-16 15 C-16.33 16.32 -16.66 17.64 -17 19 C-16.01 18.67 -15.02 18.34 -14 18 C-14.33 17.01 -14.66 16.02 -15 15 C-15.33 15 -15.66 15 -16 15 Z " fill="#EFF5F8" transform="translate(179,35)"/>
<path d="M0 0 C1.29756226 0.00036255 1.29756226 0.00036255 2.62133789 0.00073242 C13.53660894 0.28376875 24.50848222 3.58087002 33.6875 9.5625 C33.3575 11.5425 33.0275 13.5225 32.6875 15.5625 C31.6975 15.2325 30.7075 14.9025 29.6875 14.5625 C29.1925 13.5725 29.1925 13.5725 28.6875 12.5625 C27.6975 14.8725 26.7075 17.1825 25.6875 19.5625 C26.3475 19.5625 27.0075 19.5625 27.6875 19.5625 C27.6875 18.2425 27.6875 16.9225 27.6875 15.5625 C28.3475 15.5625 29.0075 15.5625 29.6875 15.5625 C29.6875 16.5525 29.6875 17.5425 29.6875 18.5625 C30.6775 18.5625 31.6675 18.5625 32.6875 18.5625 C33.1825 17.0775 33.1825 17.0775 33.6875 15.5625 C34.3475 15.5625 35.0075 15.5625 35.6875 15.5625 C35.6875 14.2425 35.6875 12.9225 35.6875 11.5625 C36.6775 11.5625 37.6675 11.5625 38.6875 11.5625 C38.3575 14.2025 38.0275 16.8425 37.6875 19.5625 C38.3475 19.8925 39.0075 20.2225 39.6875 20.5625 C39.0275 20.5625 38.3675 20.5625 37.6875 20.5625 C37.6875 22.5425 37.6875 24.5225 37.6875 26.5625 C34.9166017 26.58946009 32.1459655 26.60931952 29.375 26.625 C28.58931641 26.63337891 27.80363281 26.64175781 26.99414062 26.65039062 C26.23681641 26.65361328 25.47949219 26.65683594 24.69921875 26.66015625 C23.65447388 26.66801147 23.65447388 26.66801147 22.58862305 26.67602539 C20.6875 26.5625 20.6875 26.5625 17.6875 25.5625 C18.3475 23.5825 19.0075 21.6025 19.6875 19.5625 C18.3675 19.5625 17.0475 19.5625 15.6875 19.5625 C15.873125 20.18125 16.05875 20.8 16.25 21.4375 C16.6875 23.5625 16.6875 23.5625 15.6875 25.5625 C14.0375 25.5625 12.3875 25.5625 10.6875 25.5625 C10.0275 23.5825 9.3675 21.6025 8.6875 19.5625 C5.46345022 21.23204819 5.46345022 21.23204819 5 24.1875 C4.896875 24.97125 4.79375 25.755 4.6875 26.5625 C3.6975 26.2325 2.7075 25.9025 1.6875 25.5625 C1.3575 24.5725 1.0275 23.5825 0.6875 22.5625 C0.0275 22.2325 -0.6325 21.9025 -1.3125 21.5625 C-0.9825 23.2125 -0.6525 24.8625 -0.3125 26.5625 C-1.3025 26.5625 -2.2925 26.5625 -3.3125 26.5625 C-3.3125 25.2425 -3.3125 23.9225 -3.3125 22.5625 C-3.9725 22.5625 -4.6325 22.5625 -5.3125 22.5625 C-5.3125 23.8825 -5.3125 25.2025 -5.3125 26.5625 C-6.3025 26.5625 -7.2925 26.5625 -8.3125 26.5625 C-8.54036458 24.51171875 -8.76822917 22.4609375 -8.99609375 20.41015625 C-9.13136614 18.55109771 -9.13136614 18.55109771 -10.3125 17.5625 C-10.90982819 20.32514289 -11.3125 22.72282769 -11.3125 25.5625 C-12.96864657 25.94468767 -14.63707024 26.27645102 -16.3125 26.5625 C-16.6425 26.2325 -16.9725 25.9025 -17.3125 25.5625 C-17.6425 26.2225 -17.9725 26.8825 -18.3125 27.5625 C-18.9725 27.5625 -19.6325 27.5625 -20.3125 27.5625 C-22.32870162 18.45358911 -22.32870162 18.45358911 -22.25 14.125 C-22.03478708 11.50588347 -22.03478708 11.50588347 -23.81640625 9.90234375 C-24.31011719 9.46019531 -24.80382813 9.01804687 -25.3125 8.5625 C-23.96093571 7.78711277 -22.60607915 7.01746383 -21.25 6.25 C-20.49589844 5.82074219 -19.74179687 5.39148438 -18.96484375 4.94921875 C-12.31846386 1.47430732 -7.49538891 -0.01977675 0 0 Z " fill="#F5F9FA" transform="translate(74.3125,83.4375)"/>
<path d="M0 0 C0.72743408 0.19118408 1.45486816 0.38236816 2.2043457 0.5793457 C9.07831862 2.47540235 15.225235 5.32293947 21.5625 8.5625 C22.60229004 9.08900146 23.64208008 9.61550293 24.71337891 10.15795898 C31.19045465 13.47124385 37.58586539 16.9045832 43.875 20.5625 C44.57568604 20.96734619 45.27637207 21.37219238 45.99829102 21.78930664 C49.11749176 23.64994478 50.95472574 24.9320886 53 28 C44.25228456 30.91590515 35.25675113 29.40668727 27.09765625 25.57421875 C26.07542969 25.05472656 25.05320312 24.53523438 24 24 C22.74922516 23.38044486 21.49789826 22.76200331 20.24609375 22.14453125 C17.79827181 20.93213725 15.36455073 19.6997696 12.93359375 18.453125 C10.04534622 16.93860284 10.04534622 16.93860284 7 16 C7.495 19.96 7.495 19.96 8 24 C7.01 23.01 6.02 22.02 5 21 C4.67 21.66 4.34 22.32 4 23 C3.01 23 2.02 23 1 23 C1 22.01 1 21.02 1 20 C0.34 20 -0.32 20 -1 20 C-1 21.32 -1 22.64 -1 24 C-1.66 24 -2.32 24 -3 24 C-2.34 21.36 -1.68 18.72 -1 16 C1.475 17.98 1.475 17.98 4 20 C4 18.02 4 16.04 4 14 C0.02380238 12.27151547 -3.97851169 10.62016795 -8 9 C-8.76570313 8.67 -9.53140625 8.34 -10.3203125 8 C-20.44053697 4.22758658 -34.6343062 3.88697241 -44.5 8.375 C-46.01825509 9.21792734 -47.52123755 10.08956789 -49 11 C-50.06734375 11.48339844 -50.06734375 11.48339844 -51.15625 11.9765625 C-53.33045386 12.99921464 -53.33045386 12.99921464 -55 16 C-55.66 16 -56.32 16 -57 16 C-55.82744291 12.66272214 -54.81131596 10.22562513 -52 8 C-51.34 8 -50.68 8 -50 8 C-50 7.34 -50 6.68 -50 6 C-35.63017225 -5.34460085 -16.81544967 -4.84715809 0 0 Z " fill="#983559" transform="translate(103,79)"/>
<path d="M0 0 C5.28 0 10.56 0 16 0 C17.81579726 4.72107287 19.54049317 9.46723285 21.1875 14.25 C21.53167969 15.24515625 21.87585938 16.2403125 22.23046875 17.265625 C23 20 23 20 23 24 C23.99 24 24.98 24 26 24 C26 25.98 26 27.96 26 30 C20.72 30 15.44 30 10 30 C10 28.02 10 26.04 10 24 C10.99 24 11.98 24 13 24 C13 23.01 13 22.02 13 21 C10.03 21 7.06 21 4 21 C4 21.99 4 22.98 4 24 C4.99 24 5.98 24 7 24 C7 25.98 7 27.96 7 30 C2.38 30 -2.24 30 -7 30 C-7 28.02 -7 26.04 -7 24 C-6.01 24 -5.02 24 -4 24 C-3.896875 23.195625 -3.79375 22.39125 -3.6875 21.5625 C-3.13534354 18.70132563 -2.44204984 16.3884123 -1.4375 13.6875 C0.21465761 8.97163265 0.23666851 4.97003862 0 0 Z " fill="#923C5B" transform="translate(58,42)"/>
<path d="M0 0 C6.38453501 0.36833856 6.38453501 0.36833856 9.375 3.4375 C12.30669135 8.06055174 12.64926125 11.57466627 12 17 C9.6602841 23.23116049 5.66776854 27.40986694 -0.25 30.25 C-11.60279662 34.45721287 -25.07784706 32.69263728 -36 28 C-42.46637697 24.91905981 -48.75577848 21.50573874 -55 18 C-51.3763075 16.7921025 -50.70033562 17.30738622 -47.3125 18.8125 C-36.43055299 23.61999493 -23.28836814 25.27466405 -11.68359375 22.08984375 C-6.67976971 19.77063469 -3.1745213 17.19994224 -1 12 C-0.41130805 8.00201382 -0.13065529 4.03724833 0 0 Z " fill="#3E72A8" transform="translate(191,60)"/>
<path d="M0 0 C2.33300933 0.03888349 4.66709801 0.0448635 7 0 C7 2.97 7 5.94 7 9 C0.42097147 9.37239784 0.42097147 9.37239784 -1.625 7.5625 C-2.305625 6.7890625 -2.305625 6.7890625 -3 6 C-5.60611077 5.27802838 -5.60611077 5.27802838 -8 5 C-6.71708803 8.8487359 -5.54382857 9.15104596 -2 11 C-0.80375 11.495 0.3925 11.99 1.625 12.5 C6.54285714 14.68571429 6.54285714 14.68571429 8 17 C8.59391744 20.90288606 8.33267605 22.50098592 6.125 25.8125 C3.08864272 28.9381619 1.37136812 29.17439701 -2.875 29.25 C-3.73867187 29.27578125 -4.60234375 29.3015625 -5.4921875 29.328125 C-8.45024649 28.94108924 -9.79201784 27.95124005 -12 26 C-12 26.99 -12 27.98 -12 29 C-14.31 29 -16.62 29 -19 29 C-19 25.37 -19 21.74 -19 18 C-15.6875 17.8125 -15.6875 17.8125 -12 18 C-10.375 19.5 -10.375 19.5 -9 21 C-6.37429296 21.25069913 -6.37429296 21.25069913 -4 21 C-4 20.34 -4 19.68 -4 19 C-5.01320313 18.76216797 -5.01320313 18.76216797 -6.046875 18.51953125 C-10.17858709 17.43883777 -13.31104473 16.57412939 -16.625 13.8125 C-18.56868533 9.83678001 -18.49784722 7.40950398 -18 3 C-14.06448608 -2.80956817 -5.97797699 -1.54270374 0 0 Z " fill="#943057" transform="translate(105,43)"/>
<path d="M0 0 C0.53625 0.33 1.0725 0.66 1.625 1 C1.625 0.34 1.625 -0.32 1.625 -1 C3.935 -1 6.245 -1 8.625 -1 C8.625 2.96 8.625 6.92 8.625 11 C5.985 11 3.345 11 0.625 11 C-0.035 9.68 -0.695 8.36 -1.375 7 C-4.66575996 7.37904208 -4.66575996 7.37904208 -7.375 9 C-7.85823069 14.53550307 -7.85823069 14.53550307 -5.875 19.5 C-5.38 19.995 -4.885 20.49 -4.375 21 C-0.65611761 20.49287967 2.35954239 19.88391785 5.625 18 C6.615 19.32 7.605 20.64 8.625 22 C7.65941599 24.54563057 6.68631195 25.94635204 4.625 27.75 C-0.55002841 29.90626184 -5.94102974 29.91949988 -11.1875 27.9375 C-14.94529863 24.60916407 -17.89496194 21.61537979 -18.828125 16.53125 C-19.11230467 9.79213216 -17.19116327 6.26674939 -12.8125 1.1875 C-9.14547595 -1.84178074 -4.21456081 -1.77455192 0 0 Z " fill="#913558" transform="translate(133.375,43)"/>
<path d="M0 0 C15.48175346 -0.64507306 28.98111274 0.95423801 43 8 C45.11990242 9.03137743 47.24536942 10.05136238 49.375 11.0625 C50.37273437 11.54847656 51.37046875 12.03445312 52.3984375 12.53515625 C61.17323223 16.10408035 69.77764466 17.52959478 79.1875 18.1875 C80.23486328 18.26935547 81.28222656 18.35121094 82.36132812 18.43554688 C84.90699267 18.63315554 87.45295989 18.82116459 90 19 C89.45415221 22.96738151 89.17280217 23.83471097 86.125 26.75 C82.49107838 29.36642357 80.17546523 30.13402402 75.8125 30.0625 C73.9253125 30.0315625 73.9253125 30.0315625 72 30 C72 29.34 72 28.68 72 28 C72.67546875 27.90203125 73.3509375 27.8040625 74.046875 27.703125 C80.95967405 26.62920914 80.95967405 26.62920914 86 22 C84.515 22.495 84.515 22.495 83 23 C74.80251446 23.59785308 67.68977332 22.916212 60 20 C60 20.99 60 21.98 60 23 C58.10307857 22.54619105 56.20750405 22.08675008 54.3125 21.625 C52.72888672 21.24214844 52.72888672 21.24214844 51.11328125 20.8515625 C48.29593234 20.08094511 45.68331675 19.14501457 43 18 C43 17.34 43 16.68 43 16 C42.41081787 15.87020752 41.82163574 15.74041504 41.21459961 15.60668945 C37.75804971 14.65976778 34.7192842 12.84868931 31.5625 11.1875 C21.46360124 6.01264848 11.18072892 2.9181386 0 1 C0 0.67 0 0.34 0 0 Z " fill="#356DA2" transform="translate(95,75)"/>
<path d="M0 0 C6.45769095 1.11112209 11.67829023 3.04817058 17.375 6.25 C18.47690674 6.85279785 18.47690674 6.85279785 19.60107422 7.46777344 C21.06524756 8.26968201 22.52708154 9.07587947 23.98632812 9.88671875 C26.68063374 11.37629605 29.40527316 12.80749295 32.125 14.25 C36.3351315 16.55111004 40.1731748 19.10862096 44 22 C38.85318084 25.43121277 32.99701972 24.59345508 27 24 C22.71560075 22.82506908 18.9381304 21.03930246 15 19 C14.34692871 18.66274902 13.69385742 18.32549805 13.02099609 17.97802734 C8.64857982 15.70908136 4.31522664 13.3757327 0 11 C0.375 8.5625 0.375 8.5625 1 6 C1.66 5.67 2.32 5.34 3 5 C1.68 4.67 0.36 4.34 -1 4 C-1 4.66 -1 5.32 -1 6 C-1.99 5.67 -2.98 5.34 -4 5 C-3.525625 4.54625 -3.05125 4.0925 -2.5625 3.625 C-0.90972192 2.06741796 -0.90972192 2.06741796 0 0 Z " fill="#973054" transform="translate(112,84)"/>
<path d="M0 0 C3.96 0 7.92 0 12 0 C12 0.66 12 1.32 12 2 C11.01 2 10.02 2 9 2 C9 2.66 9 3.32 9 4 C9.99 4 10.98 4 12 4 C12 4.66 12 5.32 12 6 C11.01 6 10.02 6 9 6 C9 6.66 9 7.32 9 8 C10.32 8.33 11.64 8.66 13 9 C13.66 6.36 14.32 3.72 15 1 C15.66 1 16.32 1 17 1 C17.66 2.32 18.32 3.64 19 5 C19.66 3.68 20.32 2.36 21 1 C21.66 1 22.32 1 23 1 C23.495 3.475 23.495 3.475 24 6 C24.33 4.35 24.66 2.7 25 1 C25.66 1 26.32 1 27 1 C27 4.3 27 7.6 27 11 C27.66 11 28.32 11 29 11 C28.67 12.65 28.34 14.3 28 16 C26.35 16 24.7 16 23 16 C22.34 14.02 21.68 12.04 21 10 C17.77595022 11.66954819 17.77595022 11.66954819 17.3125 14.625 C17.209375 15.40875 17.10625 16.1925 17 17 C16.01 16.67 15.02 16.34 14 16 C13.67 15.01 13.34 14.02 13 13 C12.34 12.67 11.68 12.34 11 12 C11.33 13.65 11.66 15.3 12 17 C11.01 17 10.02 17 9 17 C9 15.68 9 14.36 9 13 C8.34 13 7.68 13 7 13 C7 14.32 7 15.64 7 17 C6.01 17 5.02 17 4 17 C3.77213542 14.94921875 3.54427083 12.8984375 3.31640625 10.84765625 C3.18113386 8.98859771 3.18113386 8.98859771 2 8 C1.40267181 10.76264289 1 13.16032769 1 16 C-0.65614657 16.38218767 -2.32457024 16.71395102 -4 17 C-4.33 16.67 -4.66 16.34 -5 16 C-5.33 16.66 -5.66 17.32 -6 18 C-6.66 18 -7.32 18 -8 18 C-10.39755352 7.16819572 -10.39755352 7.16819572 -10 2 C-9 1 -9 1 -5.4375 0.9375 C-4.303125 0.958125 -3.16875 0.97875 -2 1 C-2 2.65 -2 4.3 -2 6 C-1.34 4.02 -0.68 2.04 0 0 Z " fill="#C0D0DA" transform="translate(62,93)"/>
<path d="M0 0 C1.04293213 0.2170459 1.04293213 0.2170459 2.10693359 0.43847656 C2.82671387 0.58317383 3.54649414 0.72787109 4.28808594 0.87695312 C15.60996349 3.2591753 25.3977997 8.03333852 35.60693359 13.31347656 C36.93896908 13.98273264 38.27163758 14.65074979 39.60693359 15.31347656 C39.60693359 15.97347656 39.60693359 16.63347656 39.60693359 17.31347656 C41.25693359 17.31347656 42.90693359 17.31347656 44.60693359 17.31347656 C44.60693359 17.97347656 44.60693359 18.63347656 44.60693359 19.31347656 C47.90693359 19.64347656 51.20693359 19.97347656 54.60693359 20.31347656 C54.60693359 20.97347656 54.60693359 21.63347656 54.60693359 22.31347656 C55.26693359 22.31347656 55.92693359 22.31347656 56.60693359 22.31347656 C56.60693359 21.32347656 56.60693359 20.33347656 56.60693359 19.31347656 C62.1968396 20.20277979 62.1968396 20.20277979 64.56689453 20.8425293 C67.95418307 21.62449191 71.39950499 21.41568201 74.85693359 21.37597656 C75.60201172 21.37146484 76.34708984 21.36695312 77.11474609 21.36230469 C78.94551 21.35056902 80.77623232 21.33263506 82.60693359 21.31347656 C81.60693359 24.31347656 81.60693359 24.31347656 78.41943359 26.00097656 C75.0721411 27.32882813 72.22202132 27.57799518 68.60693359 27.31347656 C68.60693359 27.97347656 68.60693359 28.63347656 68.60693359 29.31347656 C72.89693359 28.65347656 77.18693359 27.99347656 81.60693359 27.31347656 C79.54443359 29.86425781 79.54443359 29.86425781 76.60693359 32.31347656 C73.23193359 32.29394531 73.23193359 32.29394531 69.60693359 31.50097656 C64.8046851 30.48153373 62.03405031 30.0076866 57.60693359 32.31347656 C56.98818359 31.61222656 56.36943359 30.91097656 55.73193359 30.18847656 C48.86210024 23.39476324 39.27235832 19.53332776 30.68896484 15.33300781 C28.09718069 14.06302748 25.53532376 12.75509908 22.99365234 11.38769531 C12.85785986 6.02708932 2.936616 3.07510401 -8.39306641 1.31347656 C-4.98197732 -0.96058283 -3.88250182 -0.71562457 0 0 Z " fill="#DFD2E7" transform="translate(98.39306640625,75.6865234375)"/>
<path d="M0 0 C0.79075928 0.00523682 1.58151855 0.01047363 2.39624023 0.01586914 C3.67724609 0.02070312 3.67724609 0.02070312 4.98413086 0.02563477 C5.88196289 0.03401367 6.77979492 0.04239258 7.70483398 0.05102539 C8.6065332 0.05553711 9.50823242 0.06004883 10.43725586 0.06469727 C12.67234712 0.07652315 14.90730835 0.09300319 17.14233398 0.11352539 C17.14233398 0.77352539 17.14233398 1.43352539 17.14233398 2.11352539 C17.80233398 2.11352539 18.46233398 2.11352539 19.14233398 2.11352539 C20.21758593 4.76581351 21.2368955 7.39720993 22.14233398 10.11352539 C21.81233398 10.77352539 21.48233398 11.43352539 21.14233398 12.11352539 C20.55747593 18.36700771 21.09662574 22.55179728 24.14233398 28.11352539 C23.82983398 30.48852539 23.82983398 30.48852539 23.14233398 32.11352539 C24.13233398 32.11352539 25.12233398 32.11352539 26.14233398 32.11352539 C26.14233398 33.10352539 26.14233398 34.09352539 26.14233398 35.11352539 C16.90233398 35.11352539 7.66233398 35.11352539 -1.85766602 35.11352539 C-1.85766602 33.13352539 -1.85766602 31.15352539 -1.85766602 29.11352539 C-1.29950195 29.43450195 -0.74133789 29.75547852 -0.16625977 30.08618164 C3.83866568 31.86840734 7.853952 31.78553355 12.14233398 31.11352539 C15.74317686 28.66495223 16.8980081 27.31072221 17.76733398 23.05102539 C17.38143301 19.98760149 17.38143301 19.98760149 15.07983398 17.92602539 C11.87276053 15.94719283 8.62877739 14.53392826 5.14233398 13.11352539 C4.15233398 12.45352539 3.16233398 11.79352539 2.14233398 11.11352539 C2.14233398 10.12352539 2.14233398 9.13352539 2.14233398 8.11352539 C4.45483398 7.92602539 4.45483398 7.92602539 7.14233398 8.11352539 C7.82295898 8.82508789 7.82295898 8.82508789 8.51733398 9.55102539 C11.02900199 11.96609079 13.77835425 11.79616881 17.14233398 12.11352539 C17.14233398 9.14352539 17.14233398 6.17352539 17.14233398 3.11352539 C14.97670898 3.39196289 14.97670898 3.39196289 12.76733398 3.67602539 C8.39233398 4.23852539 8.39233398 4.23852539 6.14233398 3.11352539 C0.45170615 2.7341502 -2.84142254 3.1037793 -7.85766602 6.11352539 C-8.18766602 5.12352539 -8.51766602 4.13352539 -8.85766602 3.11352539 C-8.52766602 2.45352539 -8.19766602 1.79352539 -7.85766602 1.11352539 C-6.65110352 1.14446289 -6.65110352 1.14446289 -5.42016602 1.17602539 C-2.58987049 1.10699379 -2.57459723 0.15733838 0 0 Z " fill="#F8F0F9" transform="translate(94.857666015625,39.886474609375)"/>
<path d="M0 0 C5.28 0 10.56 0 16 0 C16 0.33 16 0.66 16 1 C11.545 1.495 11.545 1.495 7 2 C7.33 3.32 7.66 4.64 8 6 C8.66 6.33 9.32 6.66 10 7 C10.484375 9.21484375 10.484375 9.21484375 10.75 11.9375 C10.89695312 13.28134766 10.89695312 13.28134766 11.046875 14.65234375 C11 17 11 17 9 19 C9.99 19.66 10.98 20.32 12 21 C9.36 21 6.72 21 4 21 C4 21.99 4 22.98 4 24 C4.99 24 5.98 24 7 24 C7 25.98 7 27.96 7 30 C2.38 30 -2.24 30 -7 30 C-7 28.02 -7 26.04 -7 24 C-6.01 24 -5.02 24 -4 24 C-3.896875 23.195625 -3.79375 22.39125 -3.6875 21.5625 C-3.13534354 18.70132563 -2.44204984 16.3884123 -1.4375 13.6875 C0.21465761 8.97163265 0.23666851 4.97003862 0 0 Z " fill="#8B2F51" transform="translate(58,42)"/>
<path d="M0 0 C6.38453501 0.36833856 6.38453501 0.36833856 9.375 3.4375 C12.30669135 8.06055174 12.64926125 11.57466627 12 17 C10.35245147 21.38777174 7.58182085 24.99589219 4 28 C3.01 28.33 2.02 28.66 1 29 C0.34 28.01 -0.32 27.02 -1 26 C0.98 26 2.96 26 5 26 C4.67 25.34 4.34 24.68 4 24 C3.0409375 24.2475 3.0409375 24.2475 2.0625 24.5 C-1.97586652 25.15932515 -5.91807258 25.08003779 -10 25 C-7.99648139 23.42580681 -6.24073864 22.09912767 -3.875 21.125 C-1.29109263 19.57465558 -0.88530785 17.80347486 0 15 C-0.99 15.66 -1.98 16.32 -3 17 C-2.68289062 16.30519531 -2.36578125 15.61039063 -2.0390625 14.89453125 C-0.90598948 11.73811356 -0.59519989 9.02719833 -0.375 5.6875 C-0.30023438 4.61886719 -0.22546875 3.55023438 -0.1484375 2.44921875 C-0.09945312 1.64097656 -0.05046875 0.83273438 0 0 Z " fill="#4473A2" transform="translate(191,60)"/>
<path d="M0 0 C0.3984375 2.2421875 0.3984375 2.2421875 0.375 4.875 C0.38273437 5.73867188 0.39046875 6.60234375 0.3984375 7.4921875 C-0.0783238 10.49297923 -0.8262701 11.8852854 -3 14 C-4.32 14 -5.64 14 -7 14 C-6.814375 14.556875 -6.62875 15.11375 -6.4375 15.6875 C-5.92448835 18.399133 -6.3359276 20.34371039 -7 23 C-8.9914056 23.38133299 -10.99279077 23.71325582 -13 24 C-14 23 -14 23 -14.0625 19.4375 C-14.041875 18.303125 -14.02125 17.16875 -14 16 C-12.35 15.67 -10.7 15.34 -9 15 C-9.33 14.34 -9.66 13.68 -10 13 C-11.65 13 -13.3 13 -15 13 C-14.67 11.35 -14.34 9.7 -14 8 C-14.66 8 -15.32 8 -16 8 C-16.125 1.25 -16.125 1.25 -15 -1 C-9.76844936 -2.53869136 -4.60669914 -3.07113276 0 0 Z " fill="#DBEEF6" transform="translate(161,48)"/>
<path d="M0 0 C0.33 0.66 0.66 1.32 1 2 C2.98917189 2.46910332 2.98917189 2.46910332 5.3125 2.625 C6.48232422 2.73714844 6.48232422 2.73714844 7.67578125 2.8515625 C9.78014747 2.985959 11.89134649 3 14 3 C16.20159313 4.8084515 16.900837 6.28173826 17.2890625 9.09375 C17.41618016 12.56059528 17.17940112 15.43616791 16.125 18.75 C11.42066962 23.7310557 6.28090028 25.99228776 -0.5546875 26.3828125 C-13.00059499 26.66627001 -13.00059499 26.66627001 -17 24 C-16.05898437 23.93941406 -15.11796875 23.87882812 -14.1484375 23.81640625 C-12.28058594 23.69072266 -12.28058594 23.69072266 -10.375 23.5625 C-8.53035156 23.44068359 -8.53035156 23.44068359 -6.6484375 23.31640625 C-3.38467612 23.03336056 -0.22056141 22.58961047 3 22 C3 21.34 3 20.68 3 20 C4.32 19.67 5.64 19.34 7 19 C7.43456409 15.89597078 7.60151411 13.0884464 7 10 C5.3295954 8.07840674 3.65134897 6.78749843 1.53125 5.38671875 C1.0259375 4.92910156 0.520625 4.47148438 0 4 C0 2.68 0 1.36 0 0 Z " fill="#3A6EA3" transform="translate(168,53)"/>
<path d="M0 0 C1.49080078 0.02707031 1.49080078 0.02707031 3.01171875 0.0546875 C3.77097656 0.07789063 4.53023437 0.10109375 5.3125 0.125 C6.47993976 3.62731927 6.09310939 5.39863882 5.4375 9 C5.25445312 10.02867188 5.07140625 11.05734375 4.8828125 12.1171875 C4.37600061 14.79009954 3.853603 17.45883794 3.3125 20.125 C2.6525 20.125 1.9925 20.125 1.3125 20.125 C0.9825 21.115 0.6525 22.105 0.3125 23.125 C-1.0075 23.125 -2.3275 23.125 -3.6875 23.125 C-4.6775 23.785 -5.6675 24.445 -6.6875 25.125 C-9.69821639 24.97446418 -11.20818815 24.53819987 -13.5 22.5625 C-15.30581894 18.85581902 -15.07939103 16.23985579 -14.6875 12.125 C-13.5 10.0625 -13.5 10.0625 -11.6875 9.125 C-9 9.4375 -9 9.4375 -6.6875 10.125 C-6.3575 11.445 -6.0275 12.765 -5.6875 14.125 C-3.0475 14.125 -0.4075 14.125 2.3125 14.125 C2.3125 10.165 2.3125 6.205 2.3125 2.125 C0.0025 2.125 -2.3075 2.125 -4.6875 2.125 C-4.6875 2.785 -4.6875 3.445 -4.6875 4.125 C-6.0075 3.465 -7.3275 2.805 -8.6875 2.125 C-5.26655758 -0.15562828 -4.00562778 -0.09425007 0 0 Z " fill="#FAF7FB" transform="translate(139.6875,39.875)"/>
<path d="M0 0 C0.95003906 0.27457031 1.90007812 0.54914063 2.87890625 0.83203125 C3.82636719 1.09371094 4.77382812 1.35539062 5.75 1.625 C8.42169436 2.63706419 10.26432357 3.81742877 12.44140625 5.64453125 C9.96640625 5.14953125 9.96640625 5.14953125 7.44140625 4.64453125 C7.44140625 5.30453125 7.44140625 5.96453125 7.44140625 6.64453125 C8.10140625 6.97453125 8.76140625 7.30453125 9.44140625 7.64453125 C8.12140625 7.64453125 6.80140625 7.64453125 5.44140625 7.64453125 C5.11140625 8.30453125 4.78140625 8.96453125 4.44140625 9.64453125 C5.10140625 9.97453125 5.76140625 10.30453125 6.44140625 10.64453125 C6.44140625 9.98453125 6.44140625 9.32453125 6.44140625 8.64453125 C8.09140625 8.64453125 9.74140625 8.64453125 11.44140625 8.64453125 C11.11140625 9.63453125 10.78140625 10.62453125 10.44140625 11.64453125 C9.78140625 11.31453125 9.12140625 10.98453125 8.44140625 10.64453125 C8.11140625 12.29453125 7.78140625 13.94453125 7.44140625 15.64453125 C6.78140625 15.64453125 6.12140625 15.64453125 5.44140625 15.64453125 C5.77140625 18.28453125 6.10140625 20.92453125 6.44140625 23.64453125 C5.45140625 22.65453125 4.46140625 21.66453125 3.44140625 20.64453125 C3.11140625 21.30453125 2.78140625 21.96453125 2.44140625 22.64453125 C1.45140625 22.64453125 0.46140625 22.64453125 -0.55859375 22.64453125 C-0.55859375 21.65453125 -0.55859375 20.66453125 -0.55859375 19.64453125 C-1.21859375 19.64453125 -1.87859375 19.64453125 -2.55859375 19.64453125 C-2.55859375 20.96453125 -2.55859375 22.28453125 -2.55859375 23.64453125 C-3.21859375 23.64453125 -3.87859375 23.64453125 -4.55859375 23.64453125 C-3.89859375 21.00453125 -3.23859375 18.36453125 -2.55859375 15.64453125 C-0.08359375 17.62453125 -0.08359375 17.62453125 2.44140625 19.64453125 C2.44140625 17.66453125 2.44140625 15.68453125 2.44140625 13.64453125 C1.6215625 13.30679688 0.80171875 12.9690625 -0.04296875 12.62109375 C-1.120625 12.17507812 -2.19828125 11.7290625 -3.30859375 11.26953125 C-4.3759375 10.82867187 -5.44328125 10.3878125 -6.54296875 9.93359375 C-8.91787486 8.91841368 -11.24848214 7.79958706 -13.55859375 6.64453125 C-9.10359375 6.14953125 -9.10359375 6.14953125 -4.55859375 5.64453125 C-4.88859375 4.32453125 -5.21859375 3.00453125 -5.55859375 1.64453125 C-2.55859375 -0.35546875 -2.55859375 -0.35546875 0 0 Z " fill="#983B5B" transform="translate(104.55859375,79.35546875)"/>
<path d="M0 0 C0.66 0 1.32 0 2 0 C2.33 2.31 2.66 4.62 3 7 C3.99 7 4.98 7 6 7 C6.33 4.69 6.66 2.38 7 0 C7.66 0 8.32 0 9 0 C10.125 6.75 10.125 6.75 9 9 C9.66 9 10.32 9 11 9 C11 7.68 11 6.36 11 5 C11.66 5 12.32 5 13 5 C13 5.99 13 6.98 13 8 C13.99 8 14.98 8 16 8 C16.33 7.01 16.66 6.02 17 5 C17.66 5 18.32 5 19 5 C19 3.68 19 2.36 19 1 C19.99 1 20.98 1 22 1 C21.67 3.64 21.34 6.28 21 9 C21.66 9.33 22.32 9.66 23 10 C22.34 10 21.68 10 21 10 C21 11.98 21 13.96 21 16 C18.2291017 16.02696009 15.4584655 16.04681952 12.6875 16.0625 C11.90181641 16.07087891 11.11613281 16.07925781 10.30664062 16.08789062 C9.54931641 16.09111328 8.79199219 16.09433594 8.01171875 16.09765625 C6.96697388 16.10551147 6.96697388 16.10551147 5.90112305 16.11352539 C4 16 4 16 1 15 C1.20625 14.05125 1.4125 13.1025 1.625 12.125 C1.74875 11.09375 1.8725 10.0625 2 9 C1.34 8.34 0.68 7.68 0 7 C-0.125 3.375 -0.125 3.375 0 0 Z " fill="#D3E5F1" transform="translate(91,94)"/>
<path d="M0 0 C1.32 0 2.64 0 4 0 C4 0.66 4 1.32 4 2 C7.3 2.33 10.6 2.66 14 3 C14 3.66 14 4.32 14 5 C14.66 5 15.32 5 16 5 C16 4.01 16 3.02 16 2 C21.58990601 2.88930323 21.58990601 2.88930323 23.95996094 3.52905273 C27.34724948 4.31101535 30.7925714 4.10220545 34.25 4.0625 C35.36761719 4.05573242 35.36761719 4.05573242 36.5078125 4.04882812 C38.3385764 4.03709246 40.16929873 4.0191585 42 4 C41 7 41 7 37.8125 8.6875 C34.4652075 10.01535157 31.61508773 10.26451861 28 10 C28 10.66 28 11.32 28 12 C17.52115427 11.22378921 8.59787818 6.9453413 0 1 C0 0.67 0 0.34 0 0 Z " fill="#507DA0" transform="translate(139,93)"/>
<path d="M0 0 C1.34262065 0.29369827 2.67696283 0.6278958 4 1 C4.66 0.67 5.32 0.34 6 0 C7.87255859 0.75683594 7.87255859 0.75683594 10.1484375 1.984375 C10.98246094 2.42410645 11.81648437 2.86383789 12.67578125 3.31689453 C13.56652344 3.78981934 14.45726562 4.26274414 15.375 4.75 C27.74826509 11.06533893 37.44229301 13.40841948 51.32421875 12.97900391 C52.57525391 12.94492432 52.57525391 12.94492432 53.8515625 12.91015625 C54.60260254 12.88058838 55.35364258 12.85102051 56.12744141 12.82055664 C58 13 58 13 60 15 C58.6875 17 58.6875 17 57 19 C56.01 19 55.02 19 54 19 C54 18.01 54 17.02 54 16 C53.01902344 16.03480469 52.03804687 16.06960937 51.02734375 16.10546875 C33.88517294 16.52968445 17.72038625 13.08823847 3 4 C1.34630643 3.30177383 -0.31727014 2.62501395 -2 2 C-1.34 1.34 -0.68 0.68 0 0 Z " fill="#D0E9F7" transform="translate(131,78)"/>
<path d="M0 0 C1.134375 0.020625 2.26875 0.04125 3.4375 0.0625 C3.4375 1.7125 3.4375 3.3625 3.4375 5.0625 C3.7675 3.4125 4.0975 1.7625 4.4375 0.0625 C6.0875 0.0625 7.7375 0.0625 9.4375 0.0625 C9.7675 1.3825 10.0975 2.7025 10.4375 4.0625 C9.7775 4.0625 9.1175 4.0625 8.4375 4.0625 C9.4275 5.7125 10.4175 7.3625 11.4375 9.0625 C10.1175 8.4025 8.7975 7.7425 7.4375 7.0625 C6.84017181 9.82514289 6.4375 12.22282769 6.4375 15.0625 C4.78135343 15.44468767 3.11292976 15.77645102 1.4375 16.0625 C1.1075 15.7325 0.7775 15.4025 0.4375 15.0625 C0.1075 15.7225 -0.2225 16.3825 -0.5625 17.0625 C-1.2225 17.0625 -1.8825 17.0625 -2.5625 17.0625 C-4.96005352 6.23069572 -4.96005352 6.23069572 -4.5625 1.0625 C-3.5625 0.0625 -3.5625 0.0625 0 0 Z " fill="#BCCBD6" transform="translate(56.5625,93.9375)"/>
<path d="M0 0 C4.95 0 9.9 0 15 0 C15 1.65 15 3.3 15 5 C15.99 6.485 15.99 6.485 17 8 C17.51953125 10.15625 17.51953125 10.15625 17.8125 12.5 C17.92207031 13.2734375 18.03164062 14.046875 18.14453125 14.84375 C18 17 18 17 16.8359375 18.80078125 C14.2972453 20.45903339 12.7766181 20.11094544 9.8125 19.6875 C8.91144531 19.56761719 8.01039062 19.44773437 7.08203125 19.32421875 C6.39496094 19.21722656 5.70789063 19.11023438 5 19 C5.33 18.01 5.66 17.02 6 16 C7.32 16 8.64 16 10 16 C9.67 12.7 9.34 9.4 9 6 C8.01 5.67 7.02 5.34 6 5 C6 3.68 6 2.36 6 1 C4.02 1 2.04 1 0 1 C0 0.67 0 0.34 0 0 Z " fill="#8E3051" transform="translate(59,43)"/>
<path d="M0 0 C0.7528125 0.13277344 1.505625 0.26554687 2.28125 0.40234375 C11.18459041 1.88263214 19.9994672 2.56094962 29 3 C28.45415221 6.96738151 28.17280217 7.83471097 25.125 10.75 C21.49107838 13.36642357 19.17546523 14.13402402 14.8125 14.0625 C12.9253125 14.0315625 12.9253125 14.0315625 11 14 C11 13.34 11 12.68 11 12 C12.01320312 11.85304688 12.01320312 11.85304688 13.046875 11.703125 C19.95967405 10.62920914 19.95967405 10.62920914 25 6 C24.01 6.33 23.02 6.66 22 7 C19.89836585 7.12065456 17.79255967 7.17536009 15.6875 7.1875 C14.57761719 7.20167969 13.46773437 7.21585937 12.32421875 7.23046875 C8.89386408 6.99264158 6.2193829 6.16116356 3 5 C0.24934768 4.83142517 0.24934768 4.83142517 -2 5 C-2.33 4.01 -2.66 3.02 -3 2 C-2.01 2 -1.02 2 0 2 C0 1.34 0 0.68 0 0 Z " fill="#4B7AAA" transform="translate(156,91)"/>
<path d="M0 0 C0 1.98 0 3.96 0 6 C1.32 6 2.64 6 4 6 C4.33 5.01 4.66 4.02 5 3 C7.0625 2.3125 7.0625 2.3125 9 2 C8.5020163 5.73487777 8.12508244 7.81237635 6 11 C3.04935852 11.2208564 0.31631769 11.28060989 -2.625 11.1875 C-3.42679688 11.17396484 -4.22859375 11.16042969 -5.0546875 11.14648438 C-7.03674378 11.11109051 -9.01845551 11.05728234 -11 11 C-15 4.25 -15 4.25 -15 2 C-12.525 2.495 -12.525 2.495 -10 3 C-9.67 4.32 -9.34 5.64 -9 7 C-7.68 7 -6.36 7 -5 7 C-5.33 4.69 -5.66 2.38 -6 0 C-3.50907189 -1.24546405 -2.58919267 -0.7767578 0 0 Z " fill="#446995" transform="translate(69,29)"/>
<path d="M0 0 C0.33 0 0.66 0 1 0 C1.14695312 0.92232422 1.14695312 0.92232422 1.296875 1.86328125 C2.11611381 6.72557024 2.11611381 6.72557024 4.5625 10.875 C8.26738222 12.58494564 12.09665074 13.82399093 16 15 C15.67 15.99 15.34 16.98 15 18 C12.69 17.67 10.38 17.34 8 17 C7.67 16.01 7.34 15.02 7 14 C4.69 14 2.38 14 0 14 C0 17.3 0 20.6 0 24 C-0.66 24 -1.32 24 -2 24 C-2 22.35 -2 20.7 -2 19 C-2.99 19 -3.98 19 -5 19 C-5.66 15.7 -6.32 12.4 -7 9 C-5.515 9.99 -5.515 9.99 -4 11 C-3.69255859 9.93458984 -3.69255859 9.93458984 -3.37890625 8.84765625 C-3.10949219 7.92855469 -2.84007813 7.00945313 -2.5625 6.0625 C-2.29566406 5.14597656 -2.02882813 4.22945312 -1.75390625 3.28515625 C-1 1 -1 1 0 0 Z " fill="#F6DEEC" transform="translate(86,47)"/>
<path d="M0 0 C4.47959418 1.14185734 8.14522751 2.43015167 12 5 C11.67 6.98 11.34 8.96 11 11 C10.01 10.67 9.02 10.34 8 10 C7.67 9.34 7.34 8.68 7 8 C6.01 8.66 5.02 9.32 4 10 C4 8.68 4 7.36 4 6 C3.34 6 2.68 6 2 6 C2 8.31 2 10.62 2 13 C0.0625 13.5625 0.0625 13.5625 -2 14 C-3 13 -3 13 -3.0625 9.4375 C-3.041875 8.303125 -3.02125 7.16875 -3 6 C-3.66 6 -4.32 6 -5 6 C-4.51515724 10.64586892 -4.51515724 10.64586892 -3 15 C-4.32 15 -5.64 15 -7 15 C-7 12.03 -7 9.06 -7 6 C-7.66 5.67 -8.32 5.34 -9 5 C-7.5422647 4.664061 -6.08378894 4.33133376 -4.625 4 C-3.40683594 3.7215625 -3.40683594 3.7215625 -2.1640625 3.4375 C0 3 0 3 2 3 C1.34 2.67 0.68 2.34 0 2 C0 1.34 0 0.68 0 0 Z " fill="#E6ECF4" transform="translate(96,88)"/>
<path d="M0 0 C0.37769531 0.48082031 0.75539063 0.96164063 1.14453125 1.45703125 C3.64531405 3.53662958 5.47306804 3.49841577 8.6875 3.6875 C9.68136719 3.75324219 10.67523438 3.81898437 11.69921875 3.88671875 C12.45847656 3.92410156 13.21773437 3.96148437 14 4 C14 4.33 14 4.66 14 5 C11.36 5 8.72 5 6 5 C6 5.99 6 6.98 6 8 C6.99 8 7.98 8 9 8 C9 9.98 9 11.96 9 14 C4.38 14 -0.24 14 -5 14 C-5 12.02 -5 10.04 -5 8 C-4.01 8 -3.02 8 -2 8 C-1.7834375 6.576875 -1.7834375 6.576875 -1.5625 5.125 C-1 2 -1 2 0 0 Z " fill="#A35E79" transform="translate(56,58)"/>
<path d="M0 0 C1.875 1.5 1.875 1.5 3 3 C2.67 3.66 2.34 4.32 2 5 C-0.546875 5.2734375 -0.546875 5.2734375 -3.75 5.375 C-8.94726989 5.72963724 -11.16589734 6.36769222 -15 10 C-17.56443336 11.33350535 -20.16455479 12.55200781 -22.79296875 13.75390625 C-25.28896564 14.94397225 -25.28896564 14.94397225 -27 18 C-27.66 18 -28.32 18 -29 18 C-27.82744291 14.66272214 -26.81131596 12.22562513 -24 10 C-23.34 10 -22.68 10 -22 10 C-22 9.34 -22 8.68 -22 8 C-16.11474887 3.35374911 -7.66732428 -1.30905536 0 0 Z " fill="#923856" transform="translate(75,77)"/>
<path d="M0 0 C1.8125 1.0625 1.8125 1.0625 3 3 C3.4375 6.5 3.4375 6.5 3 10 C0.900775 12.41022129 -0.43085365 12.90282867 -3.5625 13.4375 C-6 13 -6 13 -7.8125 11.375 C-9.34530228 8.30939543 -9.50410946 6.38473498 -9 3 C-6.30254095 0.00282328 -3.95012118 -0.60771095 0 0 Z " fill="#3C74B0" transform="translate(156,46)"/>
<path d="M0 0 C0.33 1.98 0.66 3.96 1 6 C-3.75 7 -3.75 7 -6 7 C-5.67 8.32 -5.34 9.64 -5 11 C-5.33 10.484375 -5.66 9.96875 -6 9.4375 C-8.12817389 7.56929955 -8.12817389 7.56929955 -11.9375 8.4375 C-12.98744141 8.61925781 -12.98744141 8.61925781 -14.05859375 8.8046875 C-16.5476271 9.05509327 -17.9772958 8.43274881 -20 7 C-20 7.99 -20 8.98 -20 10 C-20.66 10 -21.32 10 -22 10 C-22.04254356 8.00045254 -22.04080783 5.99958364 -22 4 C-21 3 -21 3 -17.83984375 2.90234375 C-15.90818359 2.91974609 -15.90818359 2.91974609 -13.9375 2.9375 C-12.64714844 2.94652344 -11.35679687 2.95554688 -10.02734375 2.96484375 C-9.02832031 2.97644531 -8.02929688 2.98804688 -7 3 C-7 2.34 -7 1.68 -7 1 C-4.53721199 -0.231394 -2.7204945 -0.07159196 0 0 Z " fill="#A8C3CF" transform="translate(189,48)"/>
<path d="M0 0 C0.79075928 0.00523682 1.58151855 0.01047363 2.39624023 0.01586914 C3.67724609 0.02070312 3.67724609 0.02070312 4.98413086 0.02563477 C5.88196289 0.03401367 6.77979492 0.04239258 7.70483398 0.05102539 C8.6065332 0.05553711 9.50823242 0.06004883 10.43725586 0.06469727 C12.67234712 0.07652315 14.90730835 0.09300319 17.14233398 0.11352539 C18.46462588 2.75810918 18.23910593 4.7911384 18.20483398 7.73852539 C18.19581055 8.74141602 18.18678711 9.74430664 18.17749023 10.77758789 C18.16588867 11.54844727 18.15428711 12.31930664 18.14233398 13.11352539 C15.50233398 13.11352539 12.86233398 13.11352539 10.14233398 13.11352539 C10.14233398 13.77352539 10.14233398 14.43352539 10.14233398 15.11352539 C7.17039548 13.98900812 4.80792711 12.89058748 2.14233398 11.11352539 C2.14233398 10.12352539 2.14233398 9.13352539 2.14233398 8.11352539 C4.45483398 7.92602539 4.45483398 7.92602539 7.14233398 8.11352539 C7.82295898 8.82508789 7.82295898 8.82508789 8.51733398 9.55102539 C11.02900199 11.96609079 13.77835425 11.79616881 17.14233398 12.11352539 C17.14233398 9.14352539 17.14233398 6.17352539 17.14233398 3.11352539 C14.97670898 3.39196289 14.97670898 3.39196289 12.76733398 3.67602539 C8.39233398 4.23852539 8.39233398 4.23852539 6.14233398 3.11352539 C0.45170615 2.7341502 -2.84142254 3.1037793 -7.85766602 6.11352539 C-8.18766602 5.12352539 -8.51766602 4.13352539 -8.85766602 3.11352539 C-8.52766602 2.45352539 -8.19766602 1.79352539 -7.85766602 1.11352539 C-6.65110352 1.14446289 -6.65110352 1.14446289 -5.42016602 1.17602539 C-2.58987049 1.10699379 -2.57459723 0.15733838 0 0 Z " fill="#FBE4F4" transform="translate(94.857666015625,39.886474609375)"/>
<path d="M0 0 C5.43383798 1.53151166 9.93552708 4.07606798 14.75 6.9375 C15.90048828 7.60168945 15.90048828 7.60168945 17.07421875 8.27929688 C17.80769531 8.71177734 18.54117188 9.14425781 19.296875 9.58984375 C19.96041992 9.98034912 20.62396484 10.37085449 21.30761719 10.77319336 C23 12 23 12 25 15 C21.50953395 16.16348868 18.67722983 16.16834776 15 16.1875 C13.7625 16.20167969 12.525 16.21585938 11.25 16.23046875 C8 16 8 16 5 14 C7.31 14 9.62 14 12 14 C11.50243908 11.24358584 11.50243908 11.24358584 10 9 C9.0409375 8.8453125 9.0409375 8.8453125 8.0625 8.6875 C6 8 6 8 5 6.0625 C4.67 5.381875 4.34 4.70125 4 4 C1.9664052 2.73195434 1.9664052 2.73195434 0 2 C0 1.34 0 0.68 0 0 Z " fill="#8E3D5B" transform="translate(131,92)"/>
<path d="M0 0 C2.22889496 -0.05428973 4.45817471 -0.09292338 6.6875 -0.125 C8.54955078 -0.15980469 8.54955078 -0.15980469 10.44921875 -0.1953125 C13.81237857 -0.01032021 15.9985587 0.54232105 19 2 C19 2.66 19 3.32 19 4 C20.32 4.33 21.64 4.66 23 5 C20.35261084 6.4606285 19.10551666 7 16 7 C14.98486328 7.03480469 14.98486328 7.03480469 13.94921875 7.0703125 C9.1946138 7.18527704 5.47586915 6.83625401 1 5 C1.33 3.68 1.66 2.36 2 1 C1.34 0.67 0.68 0.34 0 0 Z " fill="#FAF4FA" transform="translate(77,86)"/>
<path d="M0 0 C1.65 0 3.3 0 5 0 C5 0.66 5 1.32 5 2 C4.01 2 3.02 2 2 2 C2 2.66 2 3.32 2 4 C2.99 4 3.98 4 5 4 C5 4.66 5 5.32 5 6 C4.01 6 3.02 6 2 6 C2 6.66 2 7.32 2 8 C3.32 8.33 4.64 8.66 6 9 C6.66 6.36 7.32 3.72 8 1 C8.66 1 9.32 1 10 1 C10.66 2.32 11.32 3.64 12 5 C12.66 3.68 13.32 2.36 14 1 C14.66 1 15.32 1 16 1 C16.33 2.65 16.66 4.3 17 6 C17.33 4.35 17.66 2.7 18 1 C18.66 1 19.32 1 20 1 C20 3.97 20 6.94 20 10 C18.68 10 17.36 10 16 10 C15.34 9.01 14.68 8.02 14 7 C13.67 7.66 13.34 8.32 13 9 C12.01 8.67 11.02 8.34 10 8 C10 7.34 10 6.68 10 6 C9.34 6 8.68 6 8 6 C8 7.32 8 8.64 8 10 C5.36 10 2.72 10 0 10 C0 6.7 0 3.4 0 0 Z " fill="#7C96A8" transform="translate(69,93)"/>
<path d="M0 0 C0 0.66 0 1.32 0 2 C-0.99 2 -1.98 2 -3 2 C-2.34 3.65 -1.68 5.3 -1 7 C-2.91936213 6.57448104 -4.83542874 6.13408062 -6.75 5.6875 C-7.81734375 5.44386719 -8.8846875 5.20023438 -9.984375 4.94921875 C-12.96752299 4.01022269 -14.74140528 3.13722164 -17 1 C-17.33 0.01 -17.66 -0.98 -18 -2 C-12.10255873 -5.85601929 -5.91269779 -2.3446905 0 0 Z " fill="#346AA0" transform="translate(156,91)"/>
<path d="M0 0 C0.5775 0.61875 1.155 1.2375 1.75 1.875 C3.80249821 3.81347053 5.43366582 4.90014249 8 6 C7.34 6 6.68 6 6 6 C6 6.66 6 7.32 6 8 C8.475 8.495 8.475 8.495 11 9 C11 9.66 11 10.32 11 11 C12.32 11 13.64 11 15 11 C15 11.66 15 12.32 15 13 C13.02 13 11.04 13 9 13 C9 12.34 9 11.68 9 11 C6.03 10.505 6.03 10.505 3 10 C2.67 9.01 2.34 8.02 2 7 C0.9171875 7.0309375 0.9171875 7.0309375 -0.1875 7.0625 C-2.91925138 7.00179441 -5.34256091 6.60741465 -8 6 C-8 5.01 -8 4.02 -8 3 C-5.36 2.01 -2.72 1.02 0 0 Z " fill="#FAF7F8" transform="translate(142,69)"/>
<path d="M0 0 C6.76453393 1.20015925 13.33837886 2.93351815 19 7 C19.78125 9.1640625 19.78125 9.1640625 20 11 C15.15507803 12.51403812 11.7408989 11.36602172 7 10 C7 8.68 7 7.36 7 6 C7.66 6 8.32 6 9 6 C8.67 5.34 8.34 4.68 8 4 C7.01 4.495 7.01 4.495 6 5 C6 4.34 6 3.68 6 3 C3.03 2.505 3.03 2.505 0 2 C0 1.34 0 0.68 0 0 Z M-2 2 C-0.68 2.66 0.64 3.32 2 4 C1.01 4 0.02 4 -1 4 C-1 4.66 -1 5.32 -1 6 C-1.99 5.67 -2.98 5.34 -4 5 C-3.34 4.01 -2.68 3.02 -2 2 Z " fill="#8F2F4D" transform="translate(112,84)"/>
<path d="M0 0 C5.58990601 0.88930323 5.58990601 0.88930323 7.95996094 1.52905273 C11.34724948 2.31101535 14.7925714 2.10220545 18.25 2.0625 C19.36761719 2.05573242 19.36761719 2.05573242 20.5078125 2.04882812 C22.3385764 2.03709246 24.16929873 2.0191585 26 2 C25 5 25 5 22 7 C15.21287537 7.89690084 8.79254765 8.30552939 3.125 4.0625 C1.2578125 2.41015625 1.2578125 2.41015625 0 1 C0 0.67 0 0.34 0 0 Z " fill="#EDFCFE" transform="translate(155,95)"/>
<path d="M0 0 C0.90556641 -0.00322266 1.81113281 -0.00644531 2.74414062 -0.00976562 C9.4199953 0.0449953 9.4199953 0.0449953 11.6875 2.3125 C10.49253906 2.37308594 9.29757813 2.43367188 8.06640625 2.49609375 C-3.64778961 3.10465577 -3.64778961 3.10465577 -15.3125 4.3125 C-15.3125 4.9725 -15.3125 5.6325 -15.3125 6.3125 C-16.9625 6.3125 -18.6125 6.3125 -20.3125 6.3125 C-20.3125 7.3025 -20.3125 8.2925 -20.3125 9.3125 C-19.3225 9.6425 -18.3325 9.9725 -17.3125 10.3125 C-20.6875 10.4375 -20.6875 10.4375 -24.3125 10.3125 C-24.9725 9.6525 -25.6325 8.9925 -26.3125 8.3125 C-24.96093571 7.53711277 -23.60607915 6.76746383 -22.25 6 C-21.49589844 5.57074219 -20.74179687 5.14148438 -19.96484375 4.69921875 C-12.85243507 0.98065457 -8.02265237 -0.14586641 0 0 Z " fill="#E8C3D8" transform="translate(75.3125,83.6875)"/>
<path d="M0 0 C1.670625 0.061875 1.670625 0.061875 3.375 0.125 C4.8533226 3.08164519 4.43532783 5.86729737 4.375 9.125 C1.58636993 10.51931504 -0.54578868 10.38160094 -3.625 10.125 C-5.77415785 6.90126323 -6.00786803 5.85796326 -5.625 2.125 C-3.625 0.125 -3.625 0.125 0 0 Z " fill="#4072A8" transform="translate(173.625,35.875)"/>
<path d="M0 0 C0.66 0 1.32 0 2 0 C3.60779352 3.21558704 3.46277636 6.51241005 3 10 C0.61629748 14.46944223 -2.40206988 15.96893634 -7.02734375 17.5078125 C-9.406507 18.10142551 -11.56014175 18.22873671 -14 18 C-12.05726173 16.47356279 -10.29830484 15.13054529 -8.02734375 14.13671875 C-4.44990947 12.1308741 -2.81811145 8.57470784 -1 5 C-0.14833113 2.19259873 -0.14833113 2.19259873 0 0 Z " fill="#C5E9F8" transform="translate(195,67)"/>
<path d="M0 0 C4.62 0 9.24 0 14 0 C14 0.33 14 0.66 14 1 C9.545 1.495 9.545 1.495 5 2 C5.66 2 6.32 2 7 2 C8.33783393 2.31478446 9.67203709 2.64587656 11 3 C11.33 4.32 11.66 5.64 12 7 C3.42 7.33 -5.16 7.66 -14 8 C-9.68072606 4.76054455 -8.84798489 4.64626136 -3.75 4.8125 C-2.13351563 4.85310547 -2.13351563 4.85310547 -0.484375 4.89453125 C0.74539062 4.94673828 0.74539062 4.94673828 2 5 C2 4.01 2 3.02 2 2 C1.34 1.34 0.68 0.68 0 0 Z " fill="#87304E" transform="translate(75,77)"/>
<path d="M0 0 C2.91517292 1.07401108 4.77810176 1.77810176 7 4 C7 5.32 7 6.64 7 8 C5.02 8.99 5.02 8.99 3 10 C2.67 9.01 2.34 8.02 2 7 C1.01 7.99 0.02 8.98 -1 10 C-3 9 -5 8 -7 7 C-6.67 5.35 -6.34 3.7 -6 2 C-4.35 2.33 -2.7 2.66 -1 3 C-0.67 2.01 -0.34 1.02 0 0 Z " fill="#E9F5F9" transform="translate(168,58)"/>
<path d="M0 0 C5.28 0 10.56 0 16 0 C16 0.33 16 0.66 16 1 C11.545 1.495 11.545 1.495 7 2 C7.33 3.32 7.66 4.64 8 6 C8.66 6.33 9.32 6.66 10 7 C10.4140625 9.28515625 10.4140625 9.28515625 10.625 12.0625 C10.69976562 12.98160156 10.77453125 13.90070312 10.8515625 14.84765625 C10.90054688 15.55792969 10.94953125 16.26820312 11 17 C9.35 17 7.7 17 6 17 C6.03480469 16.30132812 6.06960937 15.60265625 6.10546875 14.8828125 C6.14607422 13.51769531 6.14607422 13.51769531 6.1875 12.125 C6.23970703 10.76761719 6.23970703 10.76761719 6.29296875 9.3828125 C6.14794922 8.20332031 6.14794922 8.20332031 6 7 C3.18490007 4.7226499 3.18490007 4.7226499 0 5 C0 3.35 0 1.7 0 0 Z " fill="#9C5270" transform="translate(58,42)"/>
<path d="M0 0 C0.08133791 1.91595968 0.13934367 3.83291932 0.1875 5.75 C0.22230469 6.81734375 0.25710937 7.8846875 0.29296875 8.984375 C-0.03221707 12.33162101 -0.6704613 13.62566248 -3 16 C-5.1875 16.75 -5.1875 16.75 -7 17 C-7 13.44973474 -6.67837981 10.30730635 -6.125 6.8125 C-5.96257812 5.74644531 -5.80015625 4.68039063 -5.6328125 3.58203125 C-5.42398438 2.72996094 -5.21515625 1.87789062 -5 1 C-3 0 -3 0 0 0 Z " fill="#EDFCFE" transform="translate(191,60)"/>
<path d="M0 0 C0.66 0.66 1.32 1.32 2 2 C0.9275 2.144375 -0.145 2.28875 -1.25 2.4375 C-2.4875 2.623125 -3.725 2.80875 -5 3 C-6.1446875 3.1546875 -6.1446875 3.1546875 -7.3125 3.3125 C-9.17910455 3.89512476 -9.17910455 3.89512476 -10.3125 5.875 C-11.27994848 8.14831646 -11.27994848 8.14831646 -10 11 C-7.98491642 11.73323796 -7.98491642 11.73323796 -6 12 C-6 11.34 -6 10.68 -6 10 C-5.34 10 -4.68 10 -4 10 C-4 10.99 -4 11.98 -4 13 C-5.65 13 -7.3 13 -9 13 C-9 13.66 -9 14.32 -9 15 C-10.9375 14.625 -10.9375 14.625 -13 14 C-14.58910767 10.82178465 -14.40420974 7.46060271 -14 4 C-10.69021417 -0.88587432 -5.2940429 -0.25209728 0 0 Z " fill="#843451" transform="translate(101,42)"/>
<path d="M0 0 C1.49080078 0.02707031 1.49080078 0.02707031 3.01171875 0.0546875 C3.77097656 0.07789063 4.53023437 0.10109375 5.3125 0.125 C6.47993976 3.62731927 6.09310939 5.39863882 5.4375 9 C5.25445312 10.02867188 5.07140625 11.05734375 4.8828125 12.1171875 C4.37600061 14.79009954 3.853603 17.45883794 3.3125 20.125 C2.6525 20.125 1.9925 20.125 1.3125 20.125 C0.9825 19.135 0.6525 18.145 0.3125 17.125 C-1.3375 16.795 -2.9875 16.465 -4.6875 16.125 C-4.6875 15.465 -4.6875 14.805 -4.6875 14.125 C-2.3775 14.125 -0.0675 14.125 2.3125 14.125 C2.3125 10.165 2.3125 6.205 2.3125 2.125 C0.0025 2.125 -2.3075 2.125 -4.6875 2.125 C-4.6875 2.785 -4.6875 3.445 -4.6875 4.125 C-6.0075 3.465 -7.3275 2.805 -8.6875 2.125 C-5.26655758 -0.15562828 -4.00562778 -0.09425007 0 0 Z " fill="#F9DFE9" transform="translate(139.6875,39.875)"/>
<path d="M0 0 C2.31 0 4.62 0 7 0 C7.37125 1.2065625 7.37125 1.2065625 7.75 2.4375 C8.72238859 5.171081 8.72238859 5.171081 11.125 5.8125 C12.053125 5.9053125 12.053125 5.9053125 13 6 C11.02 6 9.04 6 7 6 C6.67 7.32 6.34 8.64 6 10 C4.02 10 2.04 10 0 10 C0 6.7 0 3.4 0 0 Z " fill="#862F4F" transform="translate(86,61)"/>
<path d="M0 0 C0.66 0 1.32 0 2 0 C2.33 2.31 2.66 4.62 3 7 C3.99 7 4.98 7 6 7 C6.33 4.69 6.66 2.38 7 0 C7.33 0 7.66 0 8 0 C8 2.64 8 5.28 8 8 C6.02 8.99 6.02 8.99 4 10 C4 10.66 4 11.32 4 12 C4.99 12 5.98 12 7 12 C7 11.34 7 10.68 7 10 C7.99 10.33 8.98 10.66 10 11 C10 12.65 10 14.3 10 16 C7.03 15.67 4.06 15.34 1 15 C1.20625 14.05125 1.4125 13.1025 1.625 12.125 C1.74875 11.09375 1.8725 10.0625 2 9 C1.34 8.34 0.68 7.68 0 7 C-0.125 3.375 -0.125 3.375 0 0 Z " fill="#94A7B3" transform="translate(91,94)"/>
<path d="M0 0 C2.38198483 0.3841911 4.62799248 0.85459997 6.87890625 1.734375 C14.9916966 4.9017996 23.5416234 4.94229389 32 3 C29.9375 5.55078125 29.9375 5.55078125 27 8 C23.625 7.98046875 23.625 7.98046875 20 7.1875 C15.19775151 6.16805716 12.42711672 5.69421004 8 8 C5.33333333 5.33333333 2.66666667 2.66666667 0 0 Z " fill="#DFDFF1" transform="translate(148,100)"/>
<path d="M0 0 C1.32 0 2.64 0 4 0 C4 0.99 4 1.98 4 3 C4.66 3 5.32 3 6 3 C6.33 4.32 6.66 5.64 7 7 C8.65 7 10.3 7 12 7 C12.33 8.98 12.66 10.96 13 13 C9.25 14.125 9.25 14.125 7 13 C7 12.34 7 11.68 7 11 C4.20114835 8.20071066 4.20114835 8.20071066 1 6 C-1.80485127 6.0406843 -1.80485127 6.0406843 -4 7 C-3.34 6.401875 -2.68 5.80375 -2 5.1875 C0.3373846 3.12498166 0.3373846 3.12498166 0 0 Z " fill="#E4F2F7" transform="translate(141,64)"/>
<path d="M0 0 C-0.33 1.32 -0.66 2.64 -1 4 C-6.94 4 -12.88 4 -19 4 C-16 0 -16 0 -13.4375 -0.8125 C-8.88424197 -1.06085953 -4.51428921 -0.57989881 0 0 Z " fill="#FEEFF9" transform="translate(94,72)"/>
<path d="M0 0 C2.87506421 -0.02712325 5.74986908 -0.04689851 8.625 -0.0625 C9.83736328 -0.07506836 9.83736328 -0.07506836 11.07421875 -0.08789062 C15.50341918 -0.1058955 19.63883424 0.10377338 24 1 C24 1.99 24 2.98 24 4 C23.34 4.66 22.68 5.32 22 6 C18.90289657 5.71844514 16.19183467 5.06539818 13.25 4.0625 C8.90478111 2.64194767 4.48926785 1.83397466 0 1 C0 0.67 0 0.34 0 0 Z " fill="#4C769D" transform="translate(95,75)"/>
<path d="M0 0 C2 3 2 3 2 7 C2.99 7 3.98 7 5 7 C5 8.98 5 10.96 5 13 C-0.28 13 -5.56 13 -11 13 C-11 11.35 -11 9.7 -11 8 C-10.34 8 -9.68 8 -9 8 C-8.67 8.66 -8.34 9.32 -8 10 C-5.64400765 10.46751788 -5.64400765 10.46751788 -2.9375 10.625 C-1.55884766 10.73714844 -1.55884766 10.73714844 -0.15234375 10.8515625 C0.55792969 10.90054688 1.26820312 10.94953125 2 11 C2 10.34 2 9.68 2 9 C1.01 9 0.02 9 -1 9 C-1 8.01 -1 7.02 -1 6 C-0.34 6 0.32 6 1 6 C0.67 4.02 0.34 2.04 0 0 Z " fill="#934C68" transform="translate(79,59)"/>
<path d="M0 0 C0.99 0.66 1.98 1.32 3 2 C2.54625 2.7425 2.0925 3.485 1.625 4.25 C0.31359204 6.46930578 -0.88280803 8.67967822 -2 11 C0.64 10.67 3.28 10.34 6 10 C6 10.66 6 11.32 6 12 C4.41753293 12.08153933 2.83383727 12.13943557 1.25 12.1875 C0.36828125 12.22230469 -0.5134375 12.25710937 -1.421875 12.29296875 C-4.44671583 11.94923684 -5.75583602 10.99772541 -8 9 C-8 9.99 -8 10.98 -8 12 C-10.31 12 -12.62 12 -15 12 C-15 11.67 -15 11.34 -15 11 C-13.02 11 -11.04 11 -9 11 C-9 9.35 -9 7.7 -9 6 C-8.01 6 -7.02 6 -6 6 C-5.67 5.34 -5.34 4.68 -5 4 C-3.35 4 -1.7 4 0 4 C0 2.68 0 1.36 0 0 Z " fill="#9E4F6D" transform="translate(101,60)"/>
<path d="M0 0 C0 1.32 0 2.64 0 4 C-0.84304687 4.39832031 -1.68609375 4.79664062 -2.5546875 5.20703125 C-3.65039062 5.73683594 -4.74609375 6.26664062 -5.875 6.8125 C-6.96554688 7.33457031 -8.05609375 7.85664062 -9.1796875 8.39453125 C-12.22221402 9.84724897 -12.22221402 9.84724897 -14 13 C-14.66 13 -15.32 13 -16 13 C-14.82744291 9.66272214 -13.81131596 7.22562513 -11 5 C-10.34 5 -9.68 5 -9 5 C-9 4.34 -9 3.68 -9 3 C-6.04341306 0.15291628 -4.05047276 -0.3375394 0 0 Z " fill="#86455D" transform="translate(62,82)"/>
<path d="M0 0 C0 0.66 0 1.32 0 2 C-2.31 2.33 -4.62 2.66 -7 3 C-7.33 5.31 -7.66 7.62 -8 10 C-9.65 10 -11.3 10 -13 10 C-13.6875 8.3125 -13.6875 8.3125 -14 6 C-11.99477534 1.46185998 -11.99477534 1.46185998 -9.25 0.1875 C-6.15933689 -0.07005526 -3.09925474 -0.05960105 0 0 Z " fill="#912950" transform="translate(103,44)"/>
<path d="M0 0 C0.66 0.33 1.32 0.66 2 1 C2 3.97 2 6.94 2 10 C5.60654039 7.59563974 5.85452932 6.05320393 7 2 C7.33 2 7.66 2 8 2 C8.33 5.63 8.66 9.26 9 13 C4.545 13.495 4.545 13.495 0 14 C-1.23157217 9.07371134 -1.61958034 4.85874101 0 0 Z " fill="#8A3454" transform="translate(117,51)"/>
<path d="M0 0 C4.67355607 0.81279236 8.86353953 2.37483533 13.28125 4.0625 C15.85005523 4.94829491 18.32656248 5.53505434 21 6 C20.67 7.32 20.34 8.64 20 10 C20.99 10 21.98 10 23 10 C23 10.66 23 11.32 23 12 C17.6462535 10.44347945 12.99849053 8.0182491 8.125 5.375 C7.34125 4.95476562 6.5575 4.53453125 5.75 4.1015625 C3.83107943 3.0718978 1.91522397 2.03652433 0 1 C0 0.67 0 0.34 0 0 Z " fill="#6587A7" transform="translate(136,77)"/>
<path d="M0 0 C0.99 0 1.98 0 3 0 C3 0.66 3 1.32 3 2 C3.61875 2.185625 4.2375 2.37125 4.875 2.5625 C7.46882204 4.31714432 7.97511429 5.91955415 8.6953125 8.9140625 C9.23469169 12.60673544 9.15186007 16.27942817 9 20 C8.34 19.67 7.68 19.34 7 19 C6.54296875 16.890625 6.54296875 16.890625 6.1875 14.25 C5.30418618 9.42627844 4.09989984 6.95574175 0 4 C-2.67790896 3.12761142 -2.67790896 3.12761142 -5 3 C-5 2.67 -5 2.34 -5 2 C-3.35 2 -1.7 2 0 2 C0 1.34 0 0.68 0 0 Z " fill="#E4F2FB" transform="translate(196,57)"/>
<path d="M0 0 C2.31 0 4.62 0 7 0 C7 3.63 7 7.26 7 11 C4.36 11 1.72 11 -1 11 C-1 11.66 -1 12.32 -1 13 C-3.9719385 11.87548273 -6.33440687 10.77706209 -9 9 C-9 8.01 -9 7.02 -9 6 C-6.6875 5.8125 -6.6875 5.8125 -4 6 C-3.54625 6.474375 -3.0925 6.94875 -2.625 7.4375 C-0.11333199 9.85256539 2.63602027 9.68264342 6 10 C6 7.03 6 4.06 6 1 C4.02 1 2.04 1 0 1 C0 0.67 0 0.34 0 0 Z " fill="#B98DA2" transform="translate(106,42)"/>
<path d="M0 0 C0.66 0.33 1.32 0.66 2 1 C1.01 2.32 0.02 3.64 -1 5 C-0.34 5.33 0.32 5.66 1 6 C-2.40376894 7.70188447 -6.18675899 7.18458114 -9.9375 7.1875 C-11.1740332 7.20586914 -11.1740332 7.20586914 -12.43554688 7.22460938 C-13.62567383 7.22750977 -13.62567383 7.22750977 -14.83984375 7.23046875 C-15.56550537 7.23457764 -16.29116699 7.23868652 -17.03881836 7.24291992 C-19 7 -19 7 -22 5 C-21.05898437 4.93941406 -20.11796875 4.87882812 -19.1484375 4.81640625 C-17.28058594 4.69072266 -17.28058594 4.69072266 -15.375 4.5625 C-13.53035156 4.44068359 -13.53035156 4.44068359 -11.6484375 4.31640625 C-8.38467612 4.03336056 -5.22056141 3.58961047 -2 3 C-2 2.34 -2 1.68 -2 1 C-1.34 0.67 -0.68 0.34 0 0 Z " fill="#5B7C96" transform="translate(173,72)"/>
<path d="M0 0 C3.79159964 -0.05886171 7.58307919 -0.09388224 11.375 -0.125 C12.96634766 -0.15013672 12.96634766 -0.15013672 14.58984375 -0.17578125 C21.31269261 -0.21702572 27.47111548 0.37829164 34 2 C34 2.99 34 3.98 34 5 C30.27992621 4.52509696 26.8256894 3.95427919 23.1875 3 C15.64281967 1.23253992 7.7125821 1.31615763 0 1 C0 0.67 0 0.34 0 0 Z " fill="#C6E2F0" transform="translate(95,74)"/>
<path d="M0 0 C4.95 0 9.9 0 15 0 C14.67 0.66 14.34 1.32 14 2 C13.34 1.67 12.68 1.34 12 1 C12 1.66 12 2.32 12 3 C11.34 3 10.68 3 10 3 C11.87938373 5.60195202 11.87938373 5.60195202 14 8 C14.04092937 10.33297433 14.04241723 12.66705225 14 15 C13.34 14.67 12.68 14.34 12 14 C12.33 12.35 12.66 10.7 13 9 C11.68 9 10.36 9 9 9 C9 8.01 9 7.02 9 6 C8.01 5.67 7.02 5.34 6 5 C6 3.68 6 2.36 6 1 C4.02 1 2.04 1 0 1 C0 0.67 0 0.34 0 0 Z " fill="#862C4C" transform="translate(59,43)"/>
<path d="M0 0 C1.89551022 -0.05441656 3.7914792 -0.09298035 5.6875 -0.125 C6.74324219 -0.14820313 7.79898438 -0.17140625 8.88671875 -0.1953125 C12.02251859 0.00141271 14.17645373 0.66942346 17 2 C16.67 2.99 16.34 3.98 16 5 C13.69 4.67 11.38 4.34 9 4 C8.67 3.01 8.34 2.02 8 1 C5.69 1 3.38 1 1 1 C1 4.3 1 7.6 1 11 C0.34 11 -0.32 11 -1 11 C-0.67 7.37 -0.34 3.74 0 0 Z " fill="#E4B4C9" transform="translate(85,60)"/>
<path d="M0 0 C1.98 0 3.96 0 6 0 C6 2.97 6 5.94 6 9 C3.69 9 1.38 9 -1 9 C-1.5625 7.0625 -1.5625 7.0625 -2 5 C-1.67 4.67 -1.34 4.34 -1 4 C-0.63837971 2.67405895 -0.30271961 1.34061543 0 0 Z " fill="#82324F" transform="translate(106,43)"/>
<path d="M0 0 C4.29 0.66 8.58 1.32 13 2 C13.33 2.99 13.66 3.98 14 5 C8.39436958 5.82622671 3.57710648 6.06795656 -2 5 C-2.33 4.01 -2.66 3.02 -3 2 C-2.01 2 -1.02 2 0 2 C0 1.34 0 0.68 0 0 Z " fill="#4276A7" transform="translate(156,91)"/>
<path d="M0 0 C1.65 0 3.3 0 5 0 C5 3.3 5 6.6 5 10 C3.02 10 1.04 10 -1 10 C-0.49396008 7.83125748 -0.00016187 6.00032373 1 4 C0.34 4 -0.32 4 -1 4 C-0.67 2.68 -0.34 1.36 0 0 Z " fill="#883050" transform="translate(136,43)"/>
<path d="M0 0 C1.32 0 2.64 0 4 0 C4 0.66 4 1.32 4 2 C7.3 2.33 10.6 2.66 14 3 C14 3.66 14 4.32 14 5 C14.66 5 15.32 5 16 5 C16.33 4.34 16.66 3.68 17 3 C17.66 4.32 18.32 5.64 19 7 C14.8145034 8.42687384 12.9546593 8.44344697 8.86328125 6.54296875 C5.83396396 4.78273823 2.87114597 3.00838782 0 1 C0 0.67 0 0.34 0 0 Z " fill="#3B72A2" transform="translate(139,93)"/>
<path d="M0 0 C0.33 0.99 0.66 1.98 1 3 C-3.02014906 7.12880174 -5.97371655 9.96568162 -11.6875 11.125 C-12.49574219 11.29257813 -13.30398437 11.46015625 -14.13671875 11.6328125 C-14.75160156 11.75398438 -15.36648437 11.87515625 -16 12 C-15 9 -15 9 -12.890625 7.75390625 C-12.01921875 7.36074219 -11.1478125 6.96757813 -10.25 6.5625 C-6.40010715 4.74235009 -3.18979593 2.87081633 0 0 Z " fill="#44709B" transform="translate(191,74)"/>
<path d="M0 0 C2.31 0.66 4.62 1.32 7 2 C7 3.32 7 4.64 7 6 C3.04 6 -0.92 6 -5 6 C-4.67 4.68 -4.34 3.36 -4 2 C-2.515 2.99 -2.515 2.99 -1 4 C-0.67 2.68 -0.34 1.36 0 0 Z " fill="#8C3051" transform="translate(57,65)"/>
<path d="M0 0 C0.70189453 0.00451172 1.40378906 0.00902344 2.12695312 0.01367188 C3.85550538 0.02543073 5.58401365 0.04336546 7.3125 0.0625 C7.3125 1.0525 7.3125 2.0425 7.3125 3.0625 C1.3725 3.0625 -4.5675 3.0625 -10.6875 3.0625 C-10.6875 2.4025 -10.6875 1.7425 -10.6875 1.0625 C-7.06882441 -0.1437252 -3.76243749 -0.04566918 0 0 Z " fill="#F0FBFD" transform="translate(168.6875,79.9375)"/>
<path d="M0 0 C0.33 0 0.66 0 1 0 C1.33 2.64 1.66 5.28 2 8 C2 6.68 2 5.36 2 4 C2 3.34 2 2.68 2 2 C3.32 2.66 4.64 3.32 6 4 C6 4.99 6 5.98 6 7 C5.34 7 4.68 7 4 7 C4.061875 7.763125 4.12375 8.52625 4.1875 9.3125 C4 12 4 12 2.75 13.6875 C0.91358281 15.0648129 -0.90788221 16.0621541 -3 17 C-2.68289062 16.30519531 -2.36578125 15.61039063 -2.0390625 14.89453125 C-0.90598948 11.73811356 -0.59519989 9.02719833 -0.375 5.6875 C-0.30023438 4.61886719 -0.22546875 3.55023438 -0.1484375 2.44921875 C-0.09945312 1.64097656 -0.05046875 0.83273438 0 0 Z " fill="#5C83A7" transform="translate(191,60)"/>
<path d="M0 0 C0.66 0 1.32 0 2 0 C1.979375 0.804375 1.95875 1.60875 1.9375 2.4375 C1.70366379 4.93354885 1.70366379 4.93354885 3 6 C3.33 5.01 3.66 4.02 4 3 C4.66 3.33 5.32 3.66 6 4 C6.33 3.01 6.66 2.02 7 1 C7.33 1.66 7.66 2.32 8 3 C8.66 3 9.32 3 10 3 C10 4.65 10 6.3 10 8 C9.34 7.67 8.68 7.34 8 7 C8 6.34 8 5.68 8 5 C7.01 5 6.02 5 5 5 C4.67 6.32 4.34 7.64 4 9 C2.35 8.67 0.7 8.34 -1 8 C-1.04241723 5.66705225 -1.04092937 3.33297433 -1 1 C-0.67 0.67 -0.34 0.34 0 0 Z " fill="#D1E2F0" transform="translate(69,27)"/>
<path d="M0 0 C1.32 0.66 2.64 1.32 4 2 C3.34 2 2.68 2 2 2 C2.33 4.64 2.66 7.28 3 10 C2.01 9.01 1.02 8.02 0 7 C-0.33 7.66 -0.66 8.32 -1 9 C-1.99 9 -2.98 9 -4 9 C-4 8.01 -4 7.02 -4 6 C-4.66 6 -5.32 6 -6 6 C-6 7.32 -6 8.64 -6 10 C-6.66 10 -7.32 10 -8 10 C-7.34 7.36 -6.68 4.72 -6 2 C-3.525 3.98 -3.525 3.98 -1 6 C-0.67 4.02 -0.34 2.04 0 0 Z " fill="#798CA1" transform="translate(108,93)"/>
<path d="M0 0 C0.33 1.32 0.66 2.64 1 4 C0.01 3.67 -0.98 3.34 -2 3 C-2.99 3.66 -3.98 4.32 -5 5 C-5.73606499 8.56769552 -5.73606499 8.56769552 -6 12 C-8 10 -8 10 -8.3125 6.0625 C-8.23660758 3.45369811 -8.13100187 2.22752957 -6.8125 -0.0625 C-4.26271335 -1.38135516 -2.68253902 -0.7975116 0 0 Z " fill="#F6D7E8" transform="translate(133,50)"/>
<path d="M0 0 C2.31 0.33 4.62 0.66 7 1 C6.01 2.485 6.01 2.485 5 4 C5.30840599 6.15274948 5.30840599 6.15274948 6 8 C5.67 8 5.34 8 5 8 C4.89042969 8.75925781 4.78085938 9.51851562 4.66796875 10.30078125 C4.50941406 11.29464844 4.35085937 12.28851563 4.1875 13.3125 C4.03667969 14.29863281 3.88585937 15.28476563 3.73046875 16.30078125 C2.96563295 19.12699269 2.24741238 20.1959128 0 22 C-0.99 21.67 -1.98 21.34 -3 21 C-2.360625 20.566875 -1.72125 20.13375 -1.0625 19.6875 C1.26746003 18.08760823 1.26746003 18.08760823 2 15 C2.4413121 9.61188711 2.07424894 5.05598179 0 0 Z " fill="#D1E7F2" transform="translate(182,54)"/>
<path d="M0 0 C17.375 0 17.375 0 24 1 C19.8166116 3.7889256 16.35206709 3.33066174 11.4375 3.3125 C10.56158203 3.32861328 9.68566406 3.34472656 8.78320312 3.36132812 C7.52733398 3.36229492 7.52733398 3.36229492 6.24609375 3.36328125 C5.47966553 3.36626221 4.7132373 3.36924316 3.92358398 3.37231445 C3.28880127 3.24945068 2.65401855 3.12658691 2 3 C1.34 2.01 0.68 1.02 0 0 Z " fill="#4F83B9" transform="translate(161,84)"/>
<path d="M0 0 C0.33 0 0.66 0 1 0 C0.67 2.97 0.34 5.94 0 9 C-1.32 9.33 -2.64 9.66 -4 10 C-4 10.66 -4 11.32 -4 12 C-8.17737474 13.59138085 -11.53160785 14.21278058 -16 14 C-14.02263421 12.98483453 -12.06866616 12.02709095 -10 11.2109375 C-4.80948145 9.04146295 -2.78296581 6.78045372 -0.59375 1.609375 C-0.3978125 1.07828125 -0.201875 0.5471875 0 0 Z " fill="#DDF4FC" transform="translate(175,63)"/>
<path d="M0 0 C2.97 0 5.94 0 9 0 C9 0.99 9 1.98 9 3 C8.01 3 7.02 3 6 3 C6 4.98 6 6.96 6 9 C5.01 9 4.02 9 3 9 C3 7.02 3 5.04 3 3 C2.01 3 1.02 3 0 3 C0 2.01 0 1.02 0 0 Z " fill="#F2CCE0" transform="translate(62,63)"/>
<path d="M0 0 C0.33 0 0.66 0 1 0 C2.21357445 6.95047184 1.71975816 11.50023898 -1 18 C-2.90401138 16.09598862 -3.93520439 14.66574314 -4.19921875 11.953125 C-4.1886578 9.96766727 -4.09915043 7.9830086 -4 6 C-3.34 6 -2.68 6 -2 6 C-1.67 6.66 -1.34 7.32 -1 8 C-0.67 5.36 -0.34 2.72 0 0 Z " fill="#F8E8F2" transform="translate(57,42)"/>
<path d="M0 0 C1.423125 0.2784375 1.423125 0.2784375 2.875 0.5625 C5.89868793 1.28686632 5.89868793 1.28686632 8 0 C8 0.66 8 1.32 8 2 C8.763125 1.938125 9.52625 1.87625 10.3125 1.8125 C13.53016907 2.03698854 13.89962531 2.71698403 16 5 C18.10332891 5.71447643 18.10332891 5.71447643 20 6 C20 6.66 20 7.32 20 8 C12.47311828 6.2437276 12.47311828 6.2437276 9.9375 4.9375 C7.06841543 3.54923327 4.1408898 3.36241036 1 3 C0.67 2.01 0.34 1.02 0 0 Z " fill="#D9EBF1" transform="translate(131,74)"/>
<path d="M0 0 C0.99 0.66 1.98 1.32 3 2 C3.6064977 5.89891378 3.29664155 7.54514962 1.125 10.875 C0.42375 11.57625 -0.2775 12.2775 -1 13 C-1.66 13 -2.32 13 -3 13 C-3 12.34 -3 11.68 -3 11 C-2.34 11 -1.68 11 -1 11 C-1.66 8.69 -2.32 6.38 -3 4 C-2.34 3.67 -1.68 3.34 -1 3 C-0.67 2.01 -0.34 1.02 0 0 Z " fill="#913B5A" transform="translate(110,58)"/>
<path d="M0 0 C1.65 0 3.3 0 5 0 C5.33 1.32 5.66 2.64 6 4 C5.34 4 4.68 4 4 4 C4.99 5.65 5.98 7.3 7 9 C5.68 8.34 4.36 7.68 3 7 C2.67 7.66 2.34 8.32 2 9 C1.34 9 0.68 9 0 9 C0 6.03 0 3.06 0 0 Z " fill="#7A96B0" transform="translate(61,94)"/>
<path d="M0 0 C1.19109375 0.14695312 1.19109375 0.14695312 2.40625 0.296875 C3.59734375 0.42835937 3.59734375 0.42835937 4.8125 0.5625 C6.90625 1.046875 6.90625 1.046875 8.90625 3.046875 C7.78125 4.609375 7.78125 4.609375 5.90625 6.046875 C1.64765837 5.86565833 -0.91375623 4.85994641 -4.09375 2.046875 C-2.09375 0.046875 -2.09375 0.046875 0 0 Z " fill="#396A9A" transform="translate(118.09375,76.953125)"/>
<path d="M0 0 C2.6875 0.3125 2.6875 0.3125 5 1 C2 3 2 3 0 3 C0.33 5.31 0.66 7.62 1 10 C-0.32 10 -1.64 10 -3 10 C-3.103125 9.360625 -3.20625 8.72125 -3.3125 8.0625 C-3.539375 7.381875 -3.76625 6.70125 -4 6 C-4.99 5.67 -5.98 5.34 -7 5 C-6.34 5 -5.68 5 -5 5 C-4.67 4.34 -4.34 3.68 -4 3 C-3.67 3 -3.34 3 -3 3 C-2.5875 2.484375 -2.175 1.96875 -1.75 1.4375 C-1.1725 0.963125 -0.595 0.48875 0 0 Z " fill="#DCEEF8" transform="translate(63,26)"/>
<path d="M0 0 C0.99 0 1.98 0 3 0 C2.67 2.64 2.34 5.28 2 8 C2.66 8.33 3.32 8.66 4 9 C3.34 9 2.68 9 2 9 C2 10.98 2 12.96 2 15 C0.68 15 -0.64 15 -2 15 C-2.125 12.625 -2.125 12.625 -2 10 C-1.34 9.34 -0.68 8.68 0 8 C0.24212873 6.01871492 0.24212873 6.01871492 0.125 3.875 C0.063125 1.956875 0.063125 1.956875 0 0 Z " fill="#C6D2DE" transform="translate(110,95)"/>
<path d="M0 0 C3.40312738 1.05875074 6.01353231 2.00902154 9 4 C9 4.66 9 5.32 9 6 C10.65 6.33 12.3 6.66 14 7 C10.21180727 8.43410153 7.93478721 7.51009497 4.25 6.0625 C3.26515625 5.68222656 2.2803125 5.30195312 1.265625 4.91015625 C0.51796875 4.60980469 -0.2296875 4.30945313 -1 4 C-0.67 2.68 -0.34 1.36 0 0 Z " fill="#CEE6F4" transform="translate(147,84)"/>
<path d="M0 0 C2.31 0 4.62 0 7 0 C7 3.96 7 7.92 7 12 C4.36 12 1.72 12 -1 12 C-1.66 10.35 -2.32 8.7 -3 7 C-2.34 7 -1.68 7 -1 7 C-1.33 6.01 -1.66 5.02 -2 4 C-0.02 4.495 -0.02 4.495 2 5 C1.34 6.98 0.68 8.96 0 11 C1.98 11 3.96 11 6 11 C6 7.7 6 4.4 6 1 C4.02 1 2.04 1 0 1 C0 0.67 0 0.34 0 0 Z " fill="#995770" transform="translate(135,42)"/>
<path d="M0 0 C3 2 3 2 3.51171875 4.1640625 C3.56972656 4.97617188 3.62773438 5.78828125 3.6875 6.625 C3.75324219 7.44226563 3.81898437 8.25953125 3.88671875 9.1015625 C3.92410156 9.72804688 3.96148437 10.35453125 4 11 C2.125 11.625 2.125 11.625 0 12 C-0.66 11.34 -1.32 10.68 -2 10 C-1.6875 8.25 -1.6875 8.25 -1 6 C-0.65421232 4.00211562 -0.31856451 2.00240549 0 0 Z " fill="#E5F5FC" transform="translate(63,100)"/>
<path d="M0 0 C0.33 0.66 0.66 1.32 1 2 C2.98917189 2.46910332 2.98917189 2.46910332 5.3125 2.625 C6.09238281 2.69976562 6.87226563 2.77453125 7.67578125 2.8515625 C9.78014747 2.985959 11.89134649 3 14 3 C14.33 4.32 14.66 5.64 15 7 C13.7315625 6.7525 13.7315625 6.7525 12.4375 6.5 C8.96028774 5.90037735 8.96028774 5.90037735 5.25 6.0625 C2 6 2 6 0 4 C0 2.68 0 1.36 0 0 Z " fill="#416B91" transform="translate(168,53)"/>
<path d="M0 0 C1.32 0.66 2.64 1.32 4 2 C4.125 5.375 4.125 5.375 4 9 C2 11 2 11 -1.125 11.125 C-2.548125 11.063125 -2.548125 11.063125 -4 11 C-3.01 10.34 -2.02 9.68 -1 9 C1.2236068 7.0745356 1.2236068 7.0745356 2 4 C0.35 4 -1.3 4 -3 4 C-3 3.34 -3 2.68 -3 2 C-2.01 1.34 -1.02 0.68 0 0 Z " fill="#416E9A" transform="translate(155,47)"/>
<path d="M0 0 C0 2.31 0 4.62 0 7 C-0.66 6.67 -1.32 6.34 -2 6 C-2 4.35 -2 2.7 -2 1 C-2.66 1 -3.32 1 -4 1 C-4.66 2.65 -5.32 4.3 -6 6 C-6.66 5.34 -7.32 4.68 -8 4 C-8 3.01 -8 2.02 -8 1 C-8.66 0.67 -9.32 0.34 -10 0 C-6.42355152 -1.2380014 -3.66305234 -0.74926071 0 0 Z " fill="#DFF4FB" transform="translate(87,93)"/>
<path d="M0 0 C0 0.66 0 1.32 0 2 C-0.66 2 -1.32 2 -2 2 C-2 2.66 -2 3.32 -2 4 C-3.65 4 -5.3 4 -7 4 C-7 4.99 -7 5.98 -7 7 C-6.01 7.33 -5.02 7.66 -4 8 C-7.375 8.125 -7.375 8.125 -11 8 C-11.66 7.34 -12.32 6.68 -13 6 C-11.54195831 5.18697675 -10.08355685 4.37459869 -8.625 3.5625 C-7.40683594 2.88380859 -7.40683594 2.88380859 -6.1640625 2.19140625 C-2.18360656 0 -2.18360656 0 0 0 Z " fill="#E1D4E1" transform="translate(62,86)"/>
<path d="M0 0 C2.35448675 -0.05454409 4.70767875 -0.0939279 7.0625 -0.125 C9.02896484 -0.15980469 9.02896484 -0.15980469 11.03515625 -0.1953125 C15.11824299 0.00582478 18.14999053 0.72834538 22 2 C22 2.33 22 2.66 22 3 C20.02 3 18.04 3 16 3 C16 3.66 16 4.32 16 5 C16.66 5.33 17.32 5.66 18 6 C16.125 5.6875 16.125 5.6875 14 5 C13.34 4.01 12.68 3.02 12 2 C9.11404054 1.41518879 9.11404054 1.41518879 5.875 1.3125 C4.77929688 1.24675781 3.68359375 1.18101563 2.5546875 1.11328125 C1.71164063 1.07589844 0.86859375 1.03851563 0 1 C0 0.67 0 0.34 0 0 Z " fill="#9B4E6B" transform="translate(75,76)"/>
<path d="M0 0 C0.99 0.66 1.98 1.32 3 2 C6.12521833 2.16699232 6.12521833 2.16699232 9 2 C8.67 2.66 8.34 3.32 8 4 C5.03 3.67 2.06 3.34 -1 3 C-1.33 3.66 -1.66 4.32 -2 5 C-2.66 5 -3.32 5 -4 5 C-4.66 5.66 -5.32 6.32 -6 7 C-6.66 6.34 -7.32 5.68 -8 5 C-8 4.01 -8 3.02 -8 2 C-5.36 2 -2.72 2 0 2 C0 1.34 0 0.68 0 0 Z " fill="#9A4161" transform="translate(126,62)"/>
<path d="M0 0 C0.33 0.66 0.66 1.32 1 2 C1.66 2.33 2.32 2.66 3 3 C1 6 1 6 -1 8 C-1.66 7.34 -2.32 6.68 -3 6 C-5.57061311 5.35232207 -5.57061311 5.35232207 -8 5 C-7.67 6.32 -7.34 7.64 -7 9 C-7.66 9 -8.32 9 -9 9 C-9.33 7.35 -9.66 5.7 -10 4 C-7.07175348 3.02391783 -5.04386724 2.91773332 -2 3 C-2 2.34 -2 1.68 -2 1 C-1.34 0.67 -0.68 0.34 0 0 Z " fill="#A14A6B" transform="translate(105,43)"/>
<path d="M0 0 C0.72896484 0.15082031 1.45792969 0.30164063 2.20898438 0.45703125 C2.94181641 0.59238281 3.67464844 0.72773437 4.4296875 0.8671875 C9.8771183 1.93766518 9.8771183 1.93766518 12.14648438 4.20703125 C8.58182231 5.46219395 6.34028986 4.92166654 2.77148438 3.83203125 C-1.09728219 2.69781455 -4.84845474 1.74825569 -8.85351562 1.20703125 C-5.33897363 -1.13599675 -4.01060256 -0.75727234 0 0 Z " fill="#D0C6E1" transform="translate(98.853515625,75.79296875)"/>
<path d="M0 0 C0.66 0.33 1.32 0.66 2 1 C1.03644647 10.41002278 1.03644647 10.41002278 0 15 C-0.66 15 -1.32 15 -2 15 C-2.33 14.01 -2.66 13.02 -3 12 C-4.65 11.67 -6.3 11.34 -8 11 C-8 10.34 -8 9.68 -8 9 C-4.535 8.505 -4.535 8.505 -1 8 C-0.67 5.36 -0.34 2.72 0 0 Z " fill="#F6E6F0" transform="translate(143,45)"/>
<path d="M0 0 C0.33 0.99 0.66 1.98 1 3 C-0.65 3.33 -2.3 3.66 -4 4 C-3.67 4.66 -3.34 5.32 -3 6 C-6.63 5.67 -10.26 5.34 -14 5 C-13.67 4.34 -13.34 3.68 -13 3 C-10.83532539 2.37330801 -8.64135476 1.84572626 -6.4375 1.375 C-4.64119141 0.98441406 -4.64119141 0.98441406 -2.80859375 0.5859375 C-1.41833984 0.29589844 -1.41833984 0.29589844 0 0 Z " fill="#30679F" transform="translate(195,83)"/>
<path d="M0 0 C0.66 0.33 1.32 0.66 2 1 C1.34 3.31 0.68 5.62 0 8 C0.66 8 1.32 8 2 8 C1.67 8.99 1.34 9.98 1 11 C-1 10 -1 10 -2 9 C-2.66 9.99 -3.32 10.98 -4 12 C-3.67 8.37 -3.34 4.74 -3 1 C-2.01 0.67 -1.02 0.34 0 0 Z " fill="#A0496A" transform="translate(61,46)"/>
<path d="M0 0 C0.66 0.66 1.32 1.32 2 2 C0.9275 2.144375 -0.145 2.28875 -1.25 2.4375 C-5.19763562 2.95126967 -5.19763562 2.95126967 -9 4 C-9.66 4.99 -10.32 5.98 -11 7 C-11.33 5.35 -11.66 3.7 -12 2 C-8.07925671 -0.61382886 -4.55488983 -0.29386386 0 0 Z " fill="#7F415F" transform="translate(101,42)"/>
<path d="M0 0 C2.475 0.495 2.475 0.495 5 1 C5.33 2.32 5.66 3.64 6 5 C7.32 5.33 8.64 5.66 10 6 C9.01 6 8.02 6 7 6 C7 6.99 7 7.98 7 9 C6.01 9 5.02 9 4 9 C0 2.25 0 2.25 0 0 Z " fill="#507491" transform="translate(54,31)"/>
<path d="M0 0 C0.66 0.33 1.32 0.66 2 1 C2.59355614 3.64860427 2.74209269 6.29197322 3 9 C1.35 9 -0.3 9 -2 9 C-1.125 1.125 -1.125 1.125 0 0 Z " fill="#DEA8C3" transform="translate(66,50)"/>
<path d="M0 0 C1.32 0.33 2.64 0.66 4 1 C3.01 1.33 2.02 1.66 1 2 C1.66 3.32 2.32 4.64 3 6 C1.42039731 7.57960269 -0.19536816 7.16986544 -2.375 7.1875 C-3.16648437 7.20167969 -3.95796875 7.21585937 -4.7734375 7.23046875 C-7 7 -7 7 -10 5 C-7.36 5 -4.72 5 -2 5 C-1.34 3.35 -0.68 1.7 0 0 Z " fill="#8D2B4E" transform="translate(98,79)"/>
<path d="M0 0 C0.33 0 0.66 0 1 0 C1.12117188 0.60328125 1.24234375 1.2065625 1.3671875 1.828125 C1.53476563 2.62734375 1.70234375 3.4265625 1.875 4.25 C2.03742188 5.03890625 2.19984375 5.8278125 2.3671875 6.640625 C2.99150075 8.96831144 3.84838542 10.89031952 5 13 C4.01 13.495 4.01 13.495 3 14 C2.67 13.01 2.34 12.02 2 11 C1.01 11 0.02 11 -1 11 C-1.309375 9.88625 -1.61875 8.7725 -1.9375 7.625 C-2.82326483 4.2054845 -2.82326483 4.2054845 -4 2 C-3.01 2 -2.02 2 -1 2 C-0.67 1.34 -0.34 0.68 0 0 Z " fill="#F1D3E2" transform="translate(114,55)"/>
<path d="M0 0 C0.33 0.99 0.66 1.98 1 3 C0.67 3.66 0.34 4.32 0 5 C-0.66 4.67 -1.32 4.34 -2 4 C-1.67 5.32 -1.34 6.64 -1 8 C-2.98 8 -4.96 8 -7 8 C-6.67 6.68 -6.34 5.36 -6 4 C-5.34 4 -4.68 4 -4 4 C-4 3.34 -4 2.68 -4 2 C-2.68 1.34 -1.36 0.68 0 0 Z " fill="#8C2A48" transform="translate(109,58)"/>
<path d="M0 0 C0.33 0 0.66 0 1 0 C1 2.64 1 5.28 1 8 C1.66 8.33 2.32 8.66 3 9 C2.01 9.33 1.02 9.66 0 10 C-0.19412181 8.52168779 -0.38012131 7.04230684 -0.5625 5.5625 C-0.66691406 4.73878906 -0.77132812 3.91507813 -0.87890625 3.06640625 C-0.91886719 2.38449219 -0.95882812 1.70257813 -1 1 C-0.67 0.67 -0.34 0.34 0 0 Z M0 11 C-2.52788007 13.79872437 -4.20411134 15.45773019 -8 16 C-7.34 15.67 -6.68 15.34 -6 15 C-6.33 13.68 -6.66 12.36 -7 11 C-2.25 9.875 -2.25 9.875 0 11 Z " fill="#DEF0F8" transform="translate(178,35)"/>
<path d="M0 0 C0.99 0.33 1.98 0.66 3 1 C3.8125 2.9375 3.8125 2.9375 4 5 C2 7 2 7 -0.5625 7.1875 C-3 7 -3 7 -4 6 C-4.04063832 4.33382885 -4.042721 2.66611905 -4 1 C-3.34 1 -2.68 1 -2 1 C-2 2.32 -2 3.64 -2 5 C-1.01 5 -0.02 5 1 5 C0.67 3.35 0.34 1.7 0 0 Z " fill="#EBF6FA" transform="translate(73,105)"/>
<path d="M0 0 C2.475 0.99 2.475 0.99 5 2 C4.01 2.33 3.02 2.66 2 3 C2 3.66 2 4.32 2 5 C3.98 5 5.96 5 8 5 C8 5.66 8 6.32 8 7 C4.05272412 7.17942163 1.4019487 7.09350689 -2 5 C-1.34 3.35 -0.68 1.7 0 0 Z " fill="#356EB1" transform="translate(143,89)"/>
<path d="M0 0 C0.66 0 1.32 0 2 0 C2 2.31 2 4.62 2 7 C0.35 7.66 -1.3 8.32 -3 9 C-3 4.73350364 -2.43160605 3.36683915 0 0 Z " fill="#F0FCFB" transform="translate(187,68)"/>
<path d="M0 0 C1.65 0.33 3.3 0.66 5 1 C4.67 2.65 4.34 4.3 4 6 C2.35 5.67 0.7 5.34 -1 5 C-0.67 3.35 -0.34 1.7 0 0 Z " fill="#557C93" transform="translate(148,66)"/>
<path d="M0 0 C1.98 0 3.96 0 6 0 C6.33 0.66 6.66 1.32 7 2 C6.01 3.485 6.01 3.485 5 5 C2.0625 4.625 2.0625 4.625 -1 4 C-1.33 3.34 -1.66 2.68 -2 2 C-1.34 2 -0.68 2 0 2 C0 1.34 0 0.68 0 0 Z " fill="#9B4061" transform="translate(92,55)"/>
<path d="M0 0 C1 3 1 3 0 6 C-0.99 6 -1.98 6 -3 6 C-3 10.29 -3 14.58 -3 19 C-5.46996424 16.53003576 -5.32331778 15.66102667 -5.375 12.25 C-5.28823798 6.79976766 -3.86938394 3.86938394 0 0 Z " fill="#A3637C" transform="translate(120,45)"/>
<path d="M0 0 C3.71888239 0.50712033 6.73454239 1.11608215 10 3 C9.67 3.66 9.34 4.32 9 5 C9.99 5.66 10.98 6.32 12 7 C7.0682659 6.55166054 3.6807076 4.13973905 0 1 C0 0.67 0 0.34 0 0 Z " fill="#C1E1F5" transform="translate(155,95)"/>
<path d="M0 0 C0.66 0 1.32 0 2 0 C3.60725635 3.21451269 3.05748185 6.43612536 3 10 C2.34 9.01 1.68 8.02 1 7 C0.01 8.485 0.01 8.485 -1 10 C-1.66 10 -2.32 10 -3 10 C-2.01 6.7 -1.02 3.4 0 0 Z " fill="#C4E1F1" transform="translate(195,67)"/>
<path d="M0 0 C1.98 0 3.96 0 6 0 C6 0.33 6 0.66 6 1 C4.35 1 2.7 1 1 1 C1 2.98 1 4.96 1 7 C2.65 7 4.3 7 6 7 C6 7.99 6 8.98 6 10 C4.02 10 2.04 10 0 10 C0 6.7 0 3.4 0 0 Z " fill="#8D3F5C" transform="translate(86,61)"/>
<path d="M0 0 C0.33 0.66 0.66 1.32 1 2 C0.34 1.67 -0.32 1.34 -1 1 C-0.67 0.67 -0.34 0.34 0 0 Z M-1 2 C-1 2.99 -1 3.98 -1 5 C-0.01 5 0.98 5 2 5 C2 5.66 2 6.32 2 7 C-0.64 7 -3.28 7 -6 7 C-6.33 5.68 -6.66 4.36 -7 3 C-4.92446352 2.4465236 -3.15634036 2 -1 2 Z " fill="#8F2C4E" transform="translate(79,63)"/>
<path d="M0 0 C1.32 0.33 2.64 0.66 4 1 C4.79953138 4.28696233 5.09658936 5.71023192 4 9 C2.68 9 1.36 9 0 9 C0.185625 8.2575 0.37125 7.515 0.5625 6.75 C0.99203108 4.05009037 0.85122974 2.55368923 0 0 Z " fill="#8D3D5A" transform="translate(97,52)"/>
<path d="M0 0 C2.31 0 4.62 0 7 0 C8.4783226 2.95664519 8.06032783 5.74229737 8 9 C5.29120665 10.35439668 2.99066732 10.06501451 0 10 C0 9.67 0 9.34 0 9 C1.65 9 3.3 9 5 9 C5.33 6.36 5.66 3.72 6 1 C4.02 1 2.04 1 0 1 C0 0.67 0 0.34 0 0 Z " fill="#6E8EAF" transform="translate(170,36)"/>
<path d="M0 0 C0.66 0.33 1.32 0.66 2 1 C1.39009109 4.55780196 0.4216319 7.6828589 -1 11 C-1.66 11 -2.32 11 -3 11 C-2.69217504 9.35328588 -2.37860766 7.70764424 -2.0625 6.0625 C-1.88847656 5.14597656 -1.71445313 4.22945313 -1.53515625 3.28515625 C-1 1 -1 1 0 0 Z " fill="#DCECF4" transform="translate(108,99)"/>
<path d="M0 0 C-1.875 2.125 -1.875 2.125 -5 4 C-8.45453653 3.75739133 -11.67798868 2.9546751 -15 2 C-15 1.67 -15 1.34 -15 1 C-12.87630763 0.63807496 -10.7509887 0.28568253 -8.625 -0.0625 C-6.84996094 -0.35833984 -6.84996094 -0.35833984 -5.0390625 -0.66015625 C-2 -1 -2 -1 0 0 Z " fill="#C6DEF1" transform="translate(180,104)"/>
<path d="M0 0 C0 0.66 0 1.32 0 2 C-4.49656104 4.24828052 -8.07872966 4.16682272 -13 4 C-13 3.34 -13 2.68 -13 2 C-11.39658445 1.66307215 -9.79223445 1.33058907 -8.1875 1 C-7.29417969 0.814375 -6.40085938 0.62875 -5.48046875 0.4375 C-3 0 -3 0 0 0 Z " fill="#42698D" transform="translate(180,101)"/>
<path d="M0 0 C0.70125 0.144375 1.4025 0.28875 2.125 0.4375 C5.03620908 1.06414242 5.03620908 1.06414242 8.1875 1.25 C9.115625 1.4975 10.04375 1.745 11 2 C12.375 4.5625 12.375 4.5625 13 7 C8.1725201 5.58707905 4.2837641 3.57025846 0 1 C0 0.67 0 0.34 0 0 Z " fill="#8C425E" transform="translate(112,94)"/>
<path d="M0 0 C0.66 0 1.32 0 2 0 C2.8353125 0.86625 2.8353125 0.86625 3.6875 1.75 C6.55711651 4.54205931 9.47973295 6.10447159 13 8 C12.34 8.66 11.68 9.32 11 10 C7.04 7.69 3.08 5.38 -1 3 C-0.67 2.01 -0.34 1.02 0 0 Z " fill="#C8C0DE" transform="translate(136,91)"/>
<path d="M0 0 C-0.66 2.64 -1.32 5.28 -2 8 C-3.32 7.67 -4.64 7.34 -6 7 C-6 6.34 -6 5.68 -6 5 C-5.01 5 -4.02 5 -3 5 C-3 4.34 -3 3.68 -3 3 C-3.99 3 -4.98 3 -6 3 C-6 2.34 -6 1.68 -6 1 C-3 0 -3 0 0 0 Z " fill="#DDF1FA" transform="translate(77,94)"/>
<path d="M0 0 C0.33 0 0.66 0 1 0 C1 1.65 1 3.3 1 5 C0.34 5 -0.32 5 -1 5 C-1 6.65 -1 8.3 -1 10 C-2.98 10.99 -2.98 10.99 -5 12 C-5.66 11.34 -6.32 10.68 -7 10 C-6.34 10 -5.68 10 -5 10 C-4.731875 9.278125 -4.46375 8.55625 -4.1875 7.8125 C-3.00645167 5.01528026 -1.66638302 2.53580025 0 0 Z " fill="#CCE9F5" transform="translate(202,77)"/>
<path d="M0 0 C1.65 0.33 3.3 0.66 5 1 C4.67 2.65 4.34 4.3 4 6 C2.35 5.67 0.7 5.34 -1 5 C-0.67 3.35 -0.34 1.7 0 0 Z " fill="#B2C3CF" transform="translate(162,60)"/>
<path d="M0 0 C2.31 0.33 4.62 0.66 7 1 C7 3.97 7 6.94 7 10 C5 8.625 5 8.625 3 7 C3 6.34 3 5.68 3 5 C3.66 5 4.32 5 5 5 C4.33131686 1.88667752 4.33131686 1.88667752 1.9375 0.8125 C1.298125 0.544375 0.65875 0.27625 0 0 Z " fill="#BDD8EA" transform="translate(62,93)"/>
<path d="M0 0 C-1 3 -1 3 -4 5 C-4.99 5 -5.98 5 -7 5 C-7 4.01 -7 3.02 -7 2 C-8.65 2 -10.3 2 -12 2 C-12 1.67 -12 1.34 -12 1 C-10.56274129 0.83126522 -9.12518162 0.66509263 -7.6875 0.5 C-6.88699219 0.4071875 -6.08648437 0.314375 -5.26171875 0.21875 C-3 0 -3 0 0 0 Z " fill="#BDE5F6" transform="translate(181,97)"/>
<path d="M0 0 C0.66 0.33 1.32 0.66 2 1 C1.01 2.32 0.02 3.64 -1 5 C-0.34 5.33 0.32 5.66 1 6 C-1.31 6.33 -3.62 6.66 -6 7 C-6.66 6.01 -7.32 5.02 -8 4 C-6.02 3.67 -4.04 3.34 -2 3 C-2 2.34 -2 1.68 -2 1 C-1.34 0.67 -0.68 0.34 0 0 Z " fill="#5684A7" transform="translate(173,72)"/>
<path d="M0 0 C0.99 0.33 1.98 0.66 3 1 C3.79953138 4.28696233 4.09658936 5.71023192 3 9 C2.01 8.67 1.02 8.34 0 8 C-0.38063221 5.6739143 -0.71269945 3.33944736 -1 1 C-0.67 0.67 -0.34 0.34 0 0 Z " fill="#3470B5" transform="translate(179,63)"/>
<path d="M0 0 C0.66 0.66 1.32 1.32 2 2 C1.01 3.485 1.01 3.485 0 5 C-0.66 5 -1.32 5 -2 5 C-2 4.34 -2 3.68 -2 3 C-3.98 3 -5.96 3 -8 3 C-7.67 2.01 -7.34 1.02 -7 0 C-3.85179059 -1.04940314 -3.00659136 -1.066855 0 0 Z " fill="#8A2A52" transform="translate(129,66)"/>
<path d="M0 0 C1.98 0 3.96 0 6 0 C6.33 4.62 6.66 9.24 7 14 C6.01 13.34 5.02 12.68 4 12 C4.0323913 9.9917391 4.06895396 7.98301289 4.16015625 5.9765625 C4.16337131 3.72623179 4.16337131 3.72623179 2 1.5 C1.34 1.005 0.68 0.51 0 0 Z " fill="#517FA8" transform="translate(171,59)"/>
<path d="M0 0 C2.375 -0.125 2.375 -0.125 5 0 C7 2 7 2 7 5 C4.03 4.505 4.03 4.505 1 4 C0.67 2.68 0.34 1.36 0 0 Z " fill="#F8D9EB" transform="translate(97,48)"/>
<path d="M0 0 C0.66 0 1.32 0 2 0 C2 0.99 2 1.98 2 3 C2.99 3.33 3.98 3.66 5 4 C4.34 6.31 3.68 8.62 3 11 C2.34 11 1.68 11 1 11 C1.020625 9.9275 1.04125 8.855 1.0625 7.75 C1.0142016 4.85209576 0.86844115 2.71387859 0 0 Z " fill="#BBC9D4" transform="translate(102,99)"/>
<path d="M0 0 C-0.66 1.65 -1.32 3.3 -2 5 C-3.32 4.67 -4.64 4.34 -6 4 C-5.67 3.01 -5.34 2.02 -5 1 C-6.65 1 -8.3 1 -10 1 C-6.42181037 -1.33958553 -4.07775191 -0.9267618 0 0 Z " fill="#E4F3F8" transform="translate(191,92)"/>
<path d="M0 0 C0 0.66 0 1.32 0 2 C-2.31 2.66 -4.62 3.32 -7 4 C-7.33 5.65 -7.66 7.3 -8 9 C-8.33 9 -8.66 9 -9 9 C-9 6.36 -9 3.72 -9 1 C-3.375 -1.125 -3.375 -1.125 0 0 Z " fill="#E2F4FC" transform="translate(176,34)"/>
<path d="M0 0 C2.31 0.33 4.62 0.66 7 1 C5.25 3.0625 5.25 3.0625 3 5 C0.75 4.75 0.75 4.75 -1 4 C-0.67 2.68 -0.34 1.36 0 0 Z " fill="#3B6FB4" transform="translate(137,85)"/>
<path d="M0 0 C2.64 0.33 5.28 0.66 8 1 C8.33 1.99 8.66 2.98 9 4 C11.00016466 5.20882096 11.00016466 5.20882096 13 6 C12.34 6.66 11.68 7.32 11 8 C11 7.34 11 6.68 11 6 C10.484375 5.9175 9.96875 5.835 9.4375 5.75 C5.95544268 4.67859775 3.12799115 2.86476395 0 1 C0 0.67 0 0.34 0 0 Z " fill="#4D7BA4" transform="translate(127,85)"/>
<path d="M0 0 C1.65 0.33 3.3 0.66 5 1 C4.67 2.32 4.34 3.64 4 5 C2.35 4.67 0.7 4.34 -1 4 C-0.67 2.68 -0.34 1.36 0 0 Z " fill="#486D8F" transform="translate(185,50)"/>
<path d="M0 0 C0.99 0.33 1.98 0.66 3 1 C3 1.66 3 2.32 3 3 C2.071875 3.4021875 2.071875 3.4021875 1.125 3.8125 C-1.2995233 4.95556848 -1.2995233 4.95556848 -3 8 C-3.66 8 -4.32 8 -5 8 C-3.8141763 4.62496331 -2.72426311 2.35277269 0 0 Z " fill="#876172" transform="translate(51,87)"/>
<path d="M0 0 C0 0.33 0 0.66 0 1 C-1.794375 1.433125 -1.794375 1.433125 -3.625 1.875 C-7.14726836 2.7524334 -10.57201821 3.80020637 -14 5 C-14 4.01 -14 3.02 -14 2 C-8.77729131 -0.66464729 -5.9180497 -1.32854177 0 0 Z " fill="#F1D0E1" transform="translate(75,76)"/>
<path d="M0 0 C0.495 0.309375 0.99 0.61875 1.5 0.9375 C4.97986781 2.41644382 8.24028509 2.62402851 12 3 C12 3.33 12 3.66 12 4 C8.04 4.66 4.08 5.32 0 6 C0 4.02 0 2.04 0 0 Z " fill="#F3DEE9" transform="translate(93,69)"/>
<path d="M0 0 C2.64 0.33 5.28 0.66 8 1 C8 1.99 8 2.98 8 4 C5.69 3.67 3.38 3.34 1 3 C0.67 2.01 0.34 1.02 0 0 Z " fill="#C7EAF8" transform="translate(170,53)"/>
<path d="M0 0 C-0.33 1.98 -0.66 3.96 -1 6 C-1.33 4.68 -1.66 3.36 -2 2 C-2.66 2 -3.32 2 -4 2 C-4.33 3.32 -4.66 4.64 -5 6 C-5.33 4.02 -5.66 2.04 -6 0 C-3.50907189 -1.24546405 -2.58919267 -0.7767578 0 0 Z " fill="#5A7BA2" transform="translate(69,29)"/>
<path d="M0 0 C1.32 0 2.64 0 4 0 C4 0.66 4 1.32 4 2 C6.31 2.33 8.62 2.66 11 3 C11.33 4.32 11.66 5.64 12 7 C7.39104317 5.68315519 3.85859765 3.84801255 0 1 C0 0.67 0 0.34 0 0 Z " fill="#4F76A6" transform="translate(139,93)"/>
<path d="M0 0 C1.43861294 0.08746284 2.87597508 0.19565348 4.3125 0.3125 C5.11300781 0.37050781 5.91351563 0.42851563 6.73828125 0.48828125 C9.36272334 1.08206694 10.30820672 1.95780294 12 4 C7.12335991 4.34833144 4.22949995 3.41685712 0 1 C0 0.67 0 0.34 0 0 Z " fill="#E6E5F5" transform="translate(109,80)"/>
<path d="M0 0 C3.96 0 7.92 0 12 0 C12 0.33 12 0.66 12 1 C11.38511719 1.12117188 10.77023438 1.24234375 10.13671875 1.3671875 C9.32847656 1.53476562 8.52023438 1.70234375 7.6875 1.875 C6.88699219 2.03742187 6.08648437 2.19984375 5.26171875 2.3671875 C2.74698882 2.94478999 2.74698882 2.94478999 0 5 C-0.33 4.01 -0.66 3.02 -1 2 C-0.67 1.34 -0.34 0.68 0 0 Z " fill="#E9CDDE" transform="translate(87,41)"/>
<path d="M0 0 C-0.35049575 3.24208567 -0.56221181 4.61527704 -3.0625 6.8125 C-3.701875 7.204375 -4.34125 7.59625 -5 8 C-5.66 7.34 -6.32 6.68 -7 6 C-6.505 5.54625 -6.01 5.0925 -5.5 4.625 C-3.77390663 3.12364481 -3.77390663 3.12364481 -4 1 C-2 0 -2 0 0 0 Z " fill="#4D7799" transform="translate(185,94)"/>
<path d="M0 0 C0.33 0 0.66 0 1 0 C0.74438677 2.3431213 0.40729228 4.67843403 0 7 C-0.99 7.495 -0.99 7.495 -2 8 C-2.66 7.67 -3.32 7.34 -4 7 C-4 6.01 -4 5.02 -4 4 C-3.34 4 -2.68 4 -2 4 C-1.34 2.68 -0.68 1.36 0 0 Z " fill="#E6F8FE" transform="translate(196,73)"/>
<path d="M0 0 C1.2065625 0.0309375 1.2065625 0.0309375 2.4375 0.0625 C2.4375 1.3825 2.4375 2.7025 2.4375 4.0625 C0.7875 4.0625 -0.8625 4.0625 -2.5625 4.0625 C-2.8925 3.0725 -3.2225 2.0825 -3.5625 1.0625 C-2.5625 0.0625 -2.5625 0.0625 0 0 Z " fill="#F9D9E9" transform="translate(98.5625,60.9375)"/>
<path d="M0 0 C1.08667969 0.29197266 1.08667969 0.29197266 2.1953125 0.58984375 C2.74960938 0.74582031 3.30390625 0.90179688 3.875 1.0625 C3.215 1.7225 2.555 2.3825 1.875 3.0625 C-0.85369407 3.02962417 -3.4216618 2.49852229 -6.125 2.0625 C-6.125 1.4025 -6.125 0.7425 -6.125 0.0625 C-3.57797384 -1.21101308 -2.6967055 -0.73941925 0 0 Z " fill="#863050" transform="translate(141.125,103.9375)"/>
<path d="M0 0 C6.75 -0.125 6.75 -0.125 9 1 C9 1.66 9 2.32 9 3 C6.69 3.33 4.38 3.66 2 4 C1.34 2.68 0.68 1.36 0 0 Z " fill="#9E3059" transform="translate(119,94)"/>
<path d="M0 0 C0 2.64 0 5.28 0 8 C-0.99 8.495 -0.99 8.495 -2 9 C-2 7.68 -2 6.36 -2 5 C-2.66 5 -3.32 5 -4 5 C-4 4.01 -4 3.02 -4 2 C-1 0 -1 0 0 0 Z " fill="#952A4F" transform="translate(123,51)"/>
<path d="M0 0 C0 0.99 0 1.98 0 3 C-2.31 3.33 -4.62 3.66 -7 4 C-7 3.01 -7 2.02 -7 1 C-4.53721199 -0.231394 -2.7204945 -0.07159196 0 0 Z " fill="#7CA3C1" transform="translate(156,46)"/>
<path d="M0 0 C1.98 0 3.96 0 6 0 C6 1.32 6 2.64 6 4 C4.35 4 2.7 4 1 4 C0.67 2.68 0.34 1.36 0 0 Z " fill="#ADB4BA" transform="translate(84,105)"/>
<path d="M0 0 C0.66 0.33 1.32 0.66 2 1 C-0.97 3.475 -0.97 3.475 -4 6 C-5.32 5.34 -6.64 4.68 -8 4 C-6.66666667 3.33333333 -5.33333333 2.66666667 -4 2 C-3.29875 1.608125 -2.5975 1.21625 -1.875 0.8125 C-1.25625 0.544375 -0.6375 0.27625 0 0 Z " fill="#984062" transform="translate(67,78)"/>
<path d="M0 0 C0 0.66 0 1.32 0 2 C1.32 2 2.64 2 4 2 C4 2.66 4 3.32 4 4 C2.02 4 0.04 4 -2 4 C-2 3.34 -2 2.68 -2 2 C-3.32 1.67 -4.64 1.34 -6 1 C-3 0 -3 0 0 0 Z " fill="#F0FBFE" transform="translate(153,78)"/>
<path d="M0 0 C0.4125 0.45375 0.825 0.9075 1.25 1.375 C3.06408095 3.05950374 4.75285627 3.99265971 7 5 C6.34 5.66 5.68 6.32 5 7 C5 6.34 5 5.68 5 5 C3.35 5.33 1.7 5.66 0 6 C0 5.01 0 4.02 0 3 C-0.66 2.67 -1.32 2.34 -2 2 C-1.34 2 -0.68 2 0 2 C0 1.34 0 0.68 0 0 Z " fill="#F6FCFC" transform="translate(129,73)"/>
<path d="M0 0 C1.32 0 2.64 0 4 0 C3.8125 1.8125 3.8125 1.8125 3 4 C0.5625 5.8125 0.5625 5.8125 -2 7 C-2.66 6.67 -3.32 6.34 -4 6 C-3.34 5.566875 -2.68 5.13375 -2 4.6875 C-1.01 3.8521875 -1.01 3.8521875 0 3 C0 2.01 0 1.02 0 0 Z " fill="#F0D8E3" transform="translate(141,64)"/>
<path d="M0 0 C1.32 0.33 2.64 0.66 4 1 C1.8125 3.0625 1.8125 3.0625 -1 5 C-3.8125 4.75 -3.8125 4.75 -6 4 C-6 3.67 -6 3.34 -6 3 C-5.195625 2.87625 -4.39125 2.7525 -3.5625 2.625 C-2.716875 2.41875 -1.87125 2.2125 -1 2 C-0.67 1.34 -0.34 0.68 0 0 Z " fill="#F9DEEB" transform="translate(134,60)"/>
<path d="M0 0 C2.31 0 4.62 0 7 0 C6.67 1.32 6.34 2.64 6 4 C4.35 4 2.7 4 1 4 C0.67 2.68 0.34 1.36 0 0 Z " fill="#9F3054" transform="translate(89,50)"/>
<path d="M0 0 C0.33 0.66 0.66 1.32 1 2 C3.31 2 5.62 2 8 2 C4.86501708 3.85776765 2.62528568 4.20140476 -1 4 C-1.33 4.66 -1.66 5.32 -2 6 C-1.125 1.125 -1.125 1.125 0 0 Z " fill="#E8F5F9" transform="translate(147,43)"/>
<path d="M0 0 C2.31 0.33 4.62 0.66 7 1 C6.67 2.32 6.34 3.64 6 5 C5.01 4.67 4.02 4.34 3 4 C2.67 3.34 2.34 2.68 2 2 C1.01 2.495 1.01 2.495 0 3 C0 2.01 0 1.02 0 0 Z " fill="#C6DFEB" transform="translate(101,94)"/>
<path d="M0 0 C2.97 0.495 2.97 0.495 6 1 C5.01 1.33 4.02 1.66 3 2 C3 2.66 3 3.32 3 4 C1.35 4.33 -0.3 4.66 -2 5 C-2.33 4.01 -2.66 3.02 -3 2 C-2.01 2 -1.02 2 0 2 C0 1.34 0 0.68 0 0 Z " fill="#5383B3" transform="translate(156,91)"/>
<path d="M0 0 C1.32 0.33 2.64 0.66 4 1 C3.34 1 2.68 1 2 1 C2 1.66 2 2.32 2 3 C0.03852126 4.38938077 -1.96166576 5.7260411 -4 7 C-3.67 5.35 -3.34 3.7 -3 2 C-2.01 2 -1.02 2 0 2 C0 1.34 0 0.68 0 0 Z " fill="#F3D8E6" transform="translate(51,84)"/>
<path d="M0 0 C0.66 0.33 1.32 0.66 2 1 C1.67 2.32 1.34 3.64 1 5 C-0.32 5.33 -1.64 5.66 -3 6 C-3 4.33333333 -3 2.66666667 -3 1 C-2.01 0.67 -1.02 0.34 0 0 Z " fill="#457BAA" transform="translate(127,79)"/>
<path d="M0 0 C1.65 0 3.3 0 5 0 C5 0.66 5 1.32 5 2 C4.34 2 3.68 2 3 2 C3 2.66 3 3.32 3 4 C1.35 4 -0.3 4 -2 4 C-2 3.34 -2 2.68 -2 2 C-1.34 2 -0.68 2 0 2 C0 1.34 0 0.68 0 0 Z " fill="#8C2B47" transform="translate(106,82)"/>
<path d="M0 0 C0.99 0.33 1.98 0.66 3 1 C1.90554162 1.86657116 0.79902219 2.71792724 -0.3125 3.5625 C-0.92738281 4.03816406 -1.54226562 4.51382813 -2.17578125 5.00390625 C-2.77777344 5.33261719 -3.37976563 5.66132812 -4 6 C-4.99 5.67 -5.98 5.34 -7 5 C-6.360625 4.896875 -5.72125 4.79375 -5.0625 4.6875 C-4.381875 4.460625 -3.70125 4.23375 -3 4 C-2.67 3.01 -2.34 2.02 -2 1 C-1.34 0.67 -0.68 0.34 0 0 Z " fill="#CBE9F6" transform="translate(185,76)"/>
<path d="M0 0 C1.98 0.99 1.98 0.99 4 2 C3.67 3.65 3.34 5.3 3 7 C2.01 6.67 1.02 6.34 0 6 C0 4.02 0 2.04 0 0 Z " fill="#3F6C97" transform="translate(147,49)"/>
<path d="M0 0 C0.66 0 1.32 0 2 0 C2 2.31 2 4.62 2 7 C1.01 7 0.02 7 -1 7 C-1.33 5.35 -1.66 3.7 -2 2 C-1.34 2 -0.68 2 0 2 C0 1.34 0 0.68 0 0 Z " fill="#A33058" transform="translate(71,44)"/>
<path d="M0 0 C2.97 0 5.94 0 9 0 C9.33 0.99 9.66 1.98 10 3 C6.08393425 2.46599103 3.60661066 1.80330533 0 0 Z " fill="#8E4B5F" transform="translate(91,86)"/>
<path d="M0 0 C5.53846154 -0.36923077 5.53846154 -0.36923077 7.875 1.5 C8.24625 1.995 8.6175 2.49 9 3 C3.46153846 3.36923077 3.46153846 3.36923077 1.125 1.5 C0.75375 1.005 0.3825 0.51 0 0 Z " fill="#3C6F97" transform="translate(146,82)"/>
<path d="M0 0 C0.33 0 0.66 0 1 0 C1.33 1.98 1.66 3.96 2 6 C0.125 6.625 0.125 6.625 -2 7 C-2.66 6.34 -3.32 5.68 -4 5 C-3.01 4.34 -2.02 3.68 -1 3 C-0.67 2.01 -0.34 1.02 0 0 Z " fill="#E0E8EF" transform="translate(65,105)"/>
<path d="M0 0 C0.99 0.33 1.98 0.66 3 1 C2.34 1 1.68 1 1 1 C1.66 2.65 2.32 4.3 3 6 C1.35 6 -0.3 6 -2 6 C-1.34 4.02 -0.68 2.04 0 0 Z " fill="#A7B8C3" transform="translate(94,103)"/>
<path d="M0 0 C0.33 0 0.66 0 1 0 C1 2.31 1 4.62 1 7 C-0.32 7.33 -1.64 7.66 -3 8 C-2.690625 7.236875 -2.38125 6.47375 -2.0625 5.6875 C-1.32106407 3.81210323 -0.63771783 1.91315348 0 0 Z " fill="#C1D7E1" transform="translate(97,94)"/>
<path d="M0 0 C-2 2 -2 2 -5.125 2.125 C-6.548125 2.063125 -6.548125 2.063125 -8 2 C-8 1.34 -8 0.68 -8 0 C-5.13822943 -1.43088528 -3.06624227 -0.59991697 0 0 Z " fill="#4276AC" transform="translate(191,89)"/>
<path d="M0 0 C0.66 0.99 1.32 1.98 2 3 C-4.5 5.125 -4.5 5.125 -9 4 C-6.03 2.68 -3.06 1.36 0 0 Z " fill="#5A89B4" transform="translate(195,80)"/>
<path d="M0 0 C0.66 0.66 1.32 1.32 2 2 C1.625 4.125 1.625 4.125 1 6 C-0.65 5.67 -2.3 5.34 -4 5 C-3.67 4.01 -3.34 3.02 -3 2 C-2.34 2 -1.68 2 -1 2 C-0.67 1.34 -0.34 0.68 0 0 Z " fill="#4F7CB0" transform="translate(200,75)"/>
<path d="M0 0 C1.65 0.33 3.3 0.66 5 1 C5 1.66 5 2.32 5 3 C5.66 3.33 6.32 3.66 7 4 C4.69 3.67 2.38 3.34 0 3 C0 2.01 0 1.02 0 0 Z " fill="#884B68" transform="translate(122,68)"/>
<path d="M0 0 C0.33 0 0.66 0 1 0 C1.05389087 1.95803507 1.09274217 3.91648909 1.125 5.875 C1.14820313 6.96554688 1.17140625 8.05609375 1.1953125 9.1796875 C1 12 1 12 -1 14 C-1 10.83772601 -0.82985212 7.88359512 -0.5 4.75 C-0.4071875 3.85796875 -0.314375 2.9659375 -0.21875 2.046875 C-0.1465625 1.37140625 -0.074375 0.6959375 0 0 Z " fill="#D2EAF7" transform="translate(190,60)"/>
<path d="M0 0 C1.32 0.66 2.64 1.32 4 2 C4 2.66 4 3.32 4 4 C2.35 4.33 0.7 4.66 -1 5 C-1.33 4.01 -1.66 3.02 -2 2 C-1.34 1.34 -0.68 0.68 0 0 Z " fill="#9A6179" transform="translate(137,61)"/>
<path d="M0 0 C1.98 0.99 1.98 0.99 4 2 C4 2.99 4 3.98 4 5 C3.34 5 2.68 5 2 5 C2 6.65 2 8.3 2 10 C1.67 10 1.34 10 1 10 C1.020625 8.906875 1.04125 7.81375 1.0625 6.6875 C1.18544452 3.05615809 1.18544452 3.05615809 0 0 Z " fill="#598BC1" transform="translate(193,62)"/>
<path d="M0 0 C0.33 0.66 0.66 1.32 1 2 C4.02934491 2.65772428 4.02934491 2.65772428 7 3 C6.67 3.99 6.34 4.98 6 6 C6 5.34 6 4.68 6 4 C4.35 4.33 2.7 4.66 1 5 C0.67 3.35 0.34 1.7 0 0 Z " fill="#D9E4EE" transform="translate(84,101)"/>
<path d="M0 0 C-0.33 1.65 -0.66 3.3 -1 5 C-2.32 5.33 -3.64 5.66 -5 6 C-5.33 4.68 -5.66 3.36 -6 2 C-2.25 0 -2.25 0 0 0 Z " fill="#2C66A1" transform="translate(144,87)"/>
<path d="M0 0 C0 0.66 0 1.32 0 2 C-0.66 2 -1.32 2 -2 2 C-2 2.66 -2 3.32 -2 4 C-3.98 4 -5.96 4 -8 4 C-6.4425489 0.88509781 -3.40085499 0 0 0 Z " fill="#F1D0DC" transform="translate(62,86)"/>
<path d="M0 0 C1.98 0.66 3.96 1.32 6 2 C5.01 2.99 4.02 3.98 3 5 C1.68 4.34 0.36 3.68 -1 3 C-0.67 2.01 -0.34 1.02 0 0 Z " fill="#C0DEF1" transform="translate(147,84)"/>
<path d="M0 0 C0.33 0 0.66 0 1 0 C1 1.98 1 3.96 1 6 C-0.98 6 -2.96 6 -5 6 C-3.35830472 3.97945196 -1.69088222 1.97956942 0 0 Z " fill="#EDD0DD" transform="translate(112,66)"/>
<path d="M0 0 C0.66 0 1.32 0 2 0 C3.4783226 2.95664519 3.06032783 5.74229737 3 9 C0.23776722 6.23776722 0.42143709 3.79293383 0 0 Z " fill="#F1CFE2" transform="translate(76,47)"/>
<path d="M0 0 C2.00720923 0.28674418 4.0085944 0.61866701 6 1 C5.67 1.66 5.34 2.32 5 3 C4.01 3 3.02 3 2 3 C1.34 3.99 0.68 4.98 0 6 C-0.38218767 4.34385343 -0.71395102 2.67542976 -1 1 C-0.67 0.67 -0.34 0.34 0 0 Z " fill="#8C3B5D" transform="translate(90,43)"/>
</svg>
